%TF.GenerationSoftware,Altium Limited,Altium Designer,23.10.1 (27)*%
G04 Layer_Physical_Order=1*
G04 Layer_Color=255*
%FSLAX45Y45*%
%MOMM*%
%TF.SameCoordinates,EB818210-93EB-4193-A47C-AA10A5AE6B3E*%
%TF.FilePolarity,Positive*%
%TF.FileFunction,Copper,L1,Top,Signal*%
%TF.Part,Single*%
G01*
G75*
%TA.AperFunction,SMDPad,CuDef*%
G04:AMPARAMS|DCode=10|XSize=0.8mm|YSize=1mm|CornerRadius=0.1mm|HoleSize=0mm|Usage=FLASHONLY|Rotation=180.000|XOffset=0mm|YOffset=0mm|HoleType=Round|Shape=RoundedRectangle|*
%AMROUNDEDRECTD10*
21,1,0.80000,0.80000,0,0,180.0*
21,1,0.60000,1.00000,0,0,180.0*
1,1,0.20000,-0.30000,0.40000*
1,1,0.20000,0.30000,0.40000*
1,1,0.20000,0.30000,-0.40000*
1,1,0.20000,-0.30000,-0.40000*
%
%ADD10ROUNDEDRECTD10*%
%TA.AperFunction,TestPad*%
G04:AMPARAMS|DCode=11|XSize=0.3mm|YSize=1.15mm|CornerRadius=0.0375mm|HoleSize=0mm|Usage=FLASHONLY|Rotation=270.000|XOffset=0mm|YOffset=0mm|HoleType=Round|Shape=RoundedRectangle|*
%AMROUNDEDRECTD11*
21,1,0.30000,1.07500,0,0,270.0*
21,1,0.22500,1.15000,0,0,270.0*
1,1,0.07500,-0.53750,-0.11250*
1,1,0.07500,-0.53750,0.11250*
1,1,0.07500,0.53750,0.11250*
1,1,0.07500,0.53750,-0.11250*
%
%ADD11ROUNDEDRECTD11*%
G04:AMPARAMS|DCode=12|XSize=0.6mm|YSize=1.15mm|CornerRadius=0.075mm|HoleSize=0mm|Usage=FLASHONLY|Rotation=270.000|XOffset=0mm|YOffset=0mm|HoleType=Round|Shape=RoundedRectangle|*
%AMROUNDEDRECTD12*
21,1,0.60000,1.00000,0,0,270.0*
21,1,0.45000,1.15000,0,0,270.0*
1,1,0.15000,-0.50000,-0.22500*
1,1,0.15000,-0.50000,0.22500*
1,1,0.15000,0.50000,0.22500*
1,1,0.15000,0.50000,-0.22500*
%
%ADD12ROUNDEDRECTD12*%
%TA.AperFunction,SMDPad,CuDef*%
G04:AMPARAMS|DCode=13|XSize=0.8mm|YSize=0.9mm|CornerRadius=0.08mm|HoleSize=0mm|Usage=FLASHONLY|Rotation=180.000|XOffset=0mm|YOffset=0mm|HoleType=Round|Shape=RoundedRectangle|*
%AMROUNDEDRECTD13*
21,1,0.80000,0.74000,0,0,180.0*
21,1,0.64000,0.90000,0,0,180.0*
1,1,0.16000,-0.32000,0.37000*
1,1,0.16000,0.32000,0.37000*
1,1,0.16000,0.32000,-0.37000*
1,1,0.16000,-0.32000,-0.37000*
%
%ADD13ROUNDEDRECTD13*%
%ADD14R,2.00000X0.70000*%
%ADD15R,0.75000X0.30000*%
%ADD16R,0.30000X0.75000*%
G04:AMPARAMS|DCode=17|XSize=0.8mm|YSize=1mm|CornerRadius=0.1mm|HoleSize=0mm|Usage=FLASHONLY|Rotation=270.000|XOffset=0mm|YOffset=0mm|HoleType=Round|Shape=RoundedRectangle|*
%AMROUNDEDRECTD17*
21,1,0.80000,0.80000,0,0,270.0*
21,1,0.60000,1.00000,0,0,270.0*
1,1,0.20000,-0.40000,-0.30000*
1,1,0.20000,-0.40000,0.30000*
1,1,0.20000,0.40000,0.30000*
1,1,0.20000,0.40000,-0.30000*
%
%ADD17ROUNDEDRECTD17*%
%ADD18R,0.30000X0.25000*%
%ADD19R,0.25000X0.30000*%
%ADD20R,0.55000X0.30000*%
%ADD21R,0.30000X0.55000*%
G04:AMPARAMS|DCode=22|XSize=0.6mm|YSize=1.2mm|CornerRadius=0.075mm|HoleSize=0mm|Usage=FLASHONLY|Rotation=180.000|XOffset=0mm|YOffset=0mm|HoleType=Round|Shape=RoundedRectangle|*
%AMROUNDEDRECTD22*
21,1,0.60000,1.05000,0,0,180.0*
21,1,0.45000,1.20000,0,0,180.0*
1,1,0.15000,-0.22500,0.52500*
1,1,0.15000,0.22500,0.52500*
1,1,0.15000,0.22500,-0.52500*
1,1,0.15000,-0.22500,-0.52500*
%
%ADD22ROUNDEDRECTD22*%
%TA.AperFunction,BGAPad,CuDef*%
%ADD23C,0.86300*%
%TA.AperFunction,Conductor*%
%ADD24C,0.50000*%
%ADD25C,0.60000*%
%ADD26C,0.20000*%
%ADD27C,0.30000*%
%ADD28C,0.40000*%
%ADD29C,0.15000*%
%ADD30C,0.10000*%
%TA.AperFunction,TestPad*%
%ADD31C,1.80000*%
%ADD32O,2.10000X1.00000*%
%ADD33C,0.65000*%
%ADD34O,1.80000X1.00000*%
%TA.AperFunction,ViaPad*%
%ADD35C,4.00000*%
%TA.AperFunction,ComponentPad*%
%ADD36C,1.06700*%
%TA.AperFunction,ViaPad*%
%ADD37C,0.70000*%
G36*
X1725000Y-1350000D02*
X-2000001D01*
Y1350000D01*
X1725000D01*
Y-1350000D01*
D02*
G37*
%LPC*%
G36*
X93559Y1220392D02*
X-900000D01*
X-907804Y1218840D01*
X-914419Y1214419D01*
X-939418Y1189420D01*
X-939419Y1189420D01*
X-940272Y1188143D01*
X-1112837D01*
X-1132346Y1184262D01*
X-1148885Y1173211D01*
X-1159936Y1156672D01*
X-1160363Y1154523D01*
X-1707443Y607443D01*
X-1717389Y592558D01*
X-1720881Y575000D01*
Y462528D01*
X-1733581Y460001D01*
X-1736605Y467302D01*
X-1747826Y481924D01*
X-1762448Y493144D01*
X-1779477Y500198D01*
X-1797750Y502604D01*
X-1877750D01*
X-1896023Y500198D01*
X-1913052Y493144D01*
X-1927674Y481924D01*
X-1938895Y467302D01*
X-1945948Y450273D01*
X-1948354Y432000D01*
X-1945948Y413726D01*
X-1938895Y396698D01*
X-1927674Y382075D01*
X-1913052Y370855D01*
X-1896023Y363802D01*
X-1877750Y361396D01*
X-1797750D01*
X-1779477Y363802D01*
X-1762448Y370855D01*
X-1747826Y382075D01*
X-1736605Y396698D01*
X-1733581Y403998D01*
X-1720881Y401472D01*
Y-401472D01*
X-1733581Y-403998D01*
X-1736605Y-396698D01*
X-1747826Y-382076D01*
X-1762448Y-370855D01*
X-1779477Y-363802D01*
X-1797750Y-361396D01*
X-1877750D01*
X-1896023Y-363802D01*
X-1913052Y-370855D01*
X-1927674Y-382076D01*
X-1938895Y-396698D01*
X-1945948Y-413727D01*
X-1948354Y-432000D01*
X-1945948Y-450274D01*
X-1938895Y-467302D01*
X-1927674Y-481925D01*
X-1913052Y-493145D01*
X-1896023Y-500198D01*
X-1877750Y-502604D01*
X-1797750D01*
X-1779477Y-500198D01*
X-1762448Y-493145D01*
X-1747826Y-481925D01*
X-1736605Y-467302D01*
X-1733581Y-460002D01*
X-1720881Y-462528D01*
Y-540711D01*
X-1717389Y-558269D01*
X-1707443Y-573154D01*
X-1198154Y-1082443D01*
X-1183269Y-1092389D01*
X-1165711Y-1095881D01*
X-387527D01*
X-375022Y-1117541D01*
X-354541Y-1138022D01*
X-329458Y-1152503D01*
X-301482Y-1160000D01*
X-272518D01*
X-244542Y-1152503D01*
X-219459Y-1138022D01*
X-198978Y-1117541D01*
X-184496Y-1092458D01*
X-177000Y-1064482D01*
Y-1035518D01*
X-184496Y-1007542D01*
X-198978Y-982459D01*
X-219459Y-961978D01*
X-224847Y-958868D01*
Y-845145D01*
X-206619Y-826918D01*
X-193845Y-821626D01*
X-178374Y-806155D01*
X-170000Y-785940D01*
Y-764060D01*
X-178374Y-743845D01*
X-193845Y-728373D01*
X-214060Y-720000D01*
X-235940D01*
X-256155Y-728373D01*
X-271627Y-743845D01*
X-280000Y-764060D01*
Y-770526D01*
X-303171Y-793697D01*
X-313117Y-808582D01*
X-316610Y-826140D01*
Y-890416D01*
X-329310Y-897204D01*
X-331118Y-895995D01*
Y-481926D01*
X-323464Y-474272D01*
X-320373Y-466810D01*
X-306627D01*
X-303536Y-474272D01*
X-285772Y-492036D01*
X-280588Y-494183D01*
Y-603138D01*
X-281155Y-603373D01*
X-296627Y-618845D01*
X-305000Y-639060D01*
Y-660940D01*
X-296627Y-681155D01*
X-281155Y-696626D01*
X-260940Y-705000D01*
X-239060D01*
X-218845Y-696626D01*
X-203373Y-681155D01*
X-195000Y-660940D01*
Y-639060D01*
X-203373Y-618845D01*
X-218845Y-603373D01*
X-219412Y-603138D01*
Y-494183D01*
X-214228Y-492036D01*
X-196464Y-474272D01*
X-186850Y-451061D01*
Y-425939D01*
X-196464Y-402728D01*
X-214228Y-384964D01*
X-221690Y-381873D01*
Y-368127D01*
X-214228Y-365036D01*
X-196464Y-347272D01*
X-193373Y-339810D01*
X-179627D01*
X-176536Y-347272D01*
X-158772Y-365036D01*
X-135561Y-374650D01*
X-110439D01*
X-87228Y-365036D01*
X-69464Y-347272D01*
X-61954Y-329140D01*
X-48992Y-325277D01*
X-47713Y-325420D01*
X-41038Y-332095D01*
X-24312Y-341751D01*
X-5657Y-346750D01*
X13657D01*
X32312Y-341751D01*
X49038Y-332095D01*
X62695Y-318438D01*
X72351Y-301712D01*
X77350Y-283057D01*
Y-263743D01*
X72351Y-245088D01*
X62695Y-228362D01*
X49038Y-214705D01*
X46583Y-213288D01*
X49986Y-200588D01*
X222500D01*
Y-205000D01*
X226450D01*
X232197Y-208840D01*
X240000Y-210392D01*
X270000D01*
X271972Y-210000D01*
X474413D01*
Y-475222D01*
X270366Y-679269D01*
X260082Y-677223D01*
X200082D01*
X188377Y-679551D01*
X178453Y-686182D01*
X171823Y-696105D01*
X169494Y-707811D01*
Y-787810D01*
X171823Y-799516D01*
X178453Y-809439D01*
X188377Y-816070D01*
X199494Y-818281D01*
Y-941882D01*
X178542Y-947496D01*
X153459Y-961978D01*
X132978Y-982459D01*
X118497Y-1007542D01*
X111000Y-1035518D01*
Y-1064482D01*
X118497Y-1092458D01*
X132978Y-1117541D01*
X153459Y-1138022D01*
X178542Y-1152503D01*
X206518Y-1160000D01*
X235482D01*
X263458Y-1152503D01*
X288541Y-1138022D01*
X309022Y-1117541D01*
X323504Y-1092458D01*
X331000Y-1064482D01*
Y-1035518D01*
X323504Y-1007542D01*
X309022Y-982459D01*
X288541Y-961978D01*
X263458Y-947496D01*
X260670Y-946749D01*
Y-818281D01*
X271787Y-816070D01*
X281711Y-809439D01*
X288341Y-799516D01*
X290670Y-787810D01*
Y-745481D01*
X307761Y-728389D01*
X319494Y-733249D01*
Y-787810D01*
X321823Y-799516D01*
X328453Y-809439D01*
X338377Y-816070D01*
X350082Y-818398D01*
X410082D01*
X418861Y-816652D01*
X419706Y-816886D01*
X425628Y-821745D01*
X428905Y-826588D01*
X427541Y-829881D01*
Y-851761D01*
X435915Y-871976D01*
X451386Y-887447D01*
X471601Y-895821D01*
X493481D01*
X513696Y-887447D01*
X529168Y-871976D01*
X537541Y-851761D01*
Y-829881D01*
X537179Y-829006D01*
X538792Y-826170D01*
X546759Y-818948D01*
X555000Y-820588D01*
X615000D01*
X626705Y-818259D01*
X636629Y-811629D01*
X643259Y-801705D01*
X645587Y-790000D01*
Y-710000D01*
X643259Y-698295D01*
X636629Y-688371D01*
X626705Y-681741D01*
X615000Y-679412D01*
X555000D01*
X543295Y-681741D01*
X533371Y-688371D01*
X526987Y-697926D01*
X438703D01*
X438341Y-696105D01*
X431711Y-686182D01*
X421787Y-679551D01*
X410082Y-677223D01*
X375521D01*
X370661Y-665490D01*
X512679Y-523471D01*
X524413Y-528331D01*
Y-529999D01*
X524412Y-530000D01*
X526741Y-541706D01*
X533372Y-551629D01*
X678061Y-696319D01*
X676741Y-698295D01*
X674412Y-710000D01*
Y-790000D01*
X676741Y-801705D01*
X683371Y-811629D01*
X693295Y-818259D01*
X698412Y-819277D01*
Y-944316D01*
X686542Y-947496D01*
X661459Y-961978D01*
X640978Y-982459D01*
X626497Y-1007542D01*
X619000Y-1035518D01*
Y-1064482D01*
X626497Y-1092458D01*
X640978Y-1117541D01*
X661459Y-1138022D01*
X686542Y-1152503D01*
X714518Y-1160000D01*
X743482D01*
X771458Y-1152503D01*
X796541Y-1138022D01*
X817022Y-1117541D01*
X831504Y-1092458D01*
X839000Y-1064482D01*
Y-1035518D01*
X831504Y-1007542D01*
X817022Y-982459D01*
X796541Y-961978D01*
X771458Y-947496D01*
X759588Y-944316D01*
Y-820588D01*
X765000D01*
X776705Y-818259D01*
X786629Y-811629D01*
X793259Y-801705D01*
X795587Y-790000D01*
Y-710000D01*
X793259Y-698295D01*
X786629Y-688371D01*
X776705Y-681741D01*
X765000Y-679412D01*
X747670D01*
X585588Y-517330D01*
Y-205000D01*
X587500D01*
Y-199809D01*
X588840Y-197804D01*
X590392Y-190000D01*
Y-174110D01*
X603092Y-168850D01*
X652248Y-218006D01*
X648295Y-231741D01*
X638371Y-238371D01*
X631741Y-248295D01*
X629413Y-260000D01*
Y-320000D01*
X631741Y-331705D01*
X638371Y-341629D01*
X648295Y-348259D01*
X660000Y-350588D01*
X740000D01*
X744212Y-349750D01*
X756912Y-358892D01*
Y-437499D01*
X756912Y-437500D01*
X759241Y-449206D01*
X765871Y-459129D01*
X868371Y-561629D01*
X868372Y-561630D01*
X878295Y-568260D01*
X890001Y-570589D01*
X890002Y-570588D01*
X911565D01*
X913777Y-581706D01*
X920407Y-591629D01*
X930331Y-598260D01*
X942036Y-600588D01*
X1009366D01*
X1030406Y-621628D01*
X1030406Y-621629D01*
X1040330Y-628259D01*
X1052035Y-630588D01*
X1052037Y-630588D01*
X1149998D01*
X1150000Y-630588D01*
X1161705Y-628259D01*
X1171629Y-621629D01*
X1271628Y-521629D01*
X1271629Y-521629D01*
X1278259Y-511705D01*
X1280587Y-500000D01*
Y-450000D01*
X1300000D01*
Y-175000D01*
X1154339D01*
Y-156717D01*
X1154340Y-156716D01*
X1152011Y-145011D01*
X1145380Y-135087D01*
X1145380Y-135087D01*
X1078665Y-68371D01*
X1068741Y-61741D01*
X1057036Y-59412D01*
X1050560Y-49627D01*
X1050295Y-48295D01*
X1043665Y-38372D01*
X1033741Y-31741D01*
X1022036Y-29413D01*
X942036D01*
X930331Y-31741D01*
X920407Y-38372D01*
X915490Y-45731D01*
X905122Y-48701D01*
X900706Y-48908D01*
X876038Y-24241D01*
X880899Y-12508D01*
X1170996D01*
Y-15000D01*
X1173324Y-26705D01*
X1179954Y-36629D01*
X1189878Y-43259D01*
X1201583Y-45587D01*
X1281583D01*
X1282300Y-45445D01*
X1295000Y-55868D01*
Y-60940D01*
X1303374Y-81155D01*
X1318845Y-96626D01*
X1339060Y-105000D01*
X1360940D01*
X1381155Y-96626D01*
X1396627Y-81155D01*
X1405000Y-60940D01*
Y-39060D01*
X1396627Y-18845D01*
X1381155Y-3373D01*
X1367706Y2198D01*
X1367432Y3575D01*
X1361354Y12671D01*
X1338668Y35357D01*
X1329571Y41435D01*
X1318841Y43569D01*
X1312171D01*
Y45000D01*
X1309842Y56706D01*
X1303212Y66629D01*
X1293288Y73259D01*
X1281583Y75588D01*
X1201583D01*
X1189878Y73259D01*
X1179954Y66629D01*
X1173324Y56706D01*
X1170996Y45000D01*
Y43569D01*
X924826D01*
X921109Y48099D01*
Y108098D01*
X918780Y119804D01*
X912150Y129727D01*
X902227Y136358D01*
X890521Y138686D01*
X810521D01*
X798816Y136358D01*
X788893Y129727D01*
X787730Y127988D01*
X773871D01*
X772754Y129660D01*
X762830Y136290D01*
X751125Y138619D01*
X671125D01*
X659420Y136290D01*
X652700Y131801D01*
X641941Y135839D01*
X640000Y137426D01*
Y158028D01*
X640392Y160000D01*
Y190000D01*
X638840Y197804D01*
X635000Y203550D01*
Y207500D01*
X629809D01*
X627804Y208840D01*
X620000Y210392D01*
X590392D01*
Y240000D01*
X589749Y243231D01*
X587500Y255000D01*
D01*
X587640Y261536D01*
X594165Y270000D01*
X610940D01*
X631155Y278374D01*
X646627Y293845D01*
X655000Y314060D01*
Y335940D01*
X646627Y356155D01*
X631155Y371627D01*
X610940Y380000D01*
X589060D01*
X579417Y376006D01*
X569263Y385546D01*
X570373Y391125D01*
Y608985D01*
X568239Y619715D01*
X562161Y628811D01*
X529153Y661819D01*
X520057Y667897D01*
X509327Y670031D01*
X365207D01*
X347335Y687902D01*
Y787164D01*
X277335D01*
Y672164D01*
X286491D01*
X291972Y663961D01*
X333766Y622166D01*
X342863Y616088D01*
X353593Y613954D01*
X409836D01*
Y578038D01*
X158351D01*
X147621Y575904D01*
X138525Y569826D01*
X100009Y531310D01*
X97239Y527164D01*
X77335D01*
Y412164D01*
X90492D01*
X95352Y400431D01*
X94926Y400005D01*
X86553Y379790D01*
Y357910D01*
X94926Y337695D01*
X110398Y322223D01*
X126053Y315739D01*
X123527Y303039D01*
X86614D01*
X3039Y386614D01*
Y528215D01*
X39488Y564664D01*
X114835D01*
Y634664D01*
X-165D01*
Y604317D01*
X-37313Y567168D01*
X-50013Y572428D01*
Y846148D01*
X42636Y938798D01*
X154608D01*
Y900983D01*
X154413Y900000D01*
Y820000D01*
X154608Y819017D01*
Y818257D01*
X156160Y810454D01*
X156376Y810131D01*
X156741Y808295D01*
X163372Y798371D01*
X173295Y791741D01*
X175132Y791375D01*
X175454Y791160D01*
X176650Y790922D01*
Y729664D01*
X177335Y726216D01*
Y672164D01*
X247335D01*
Y726216D01*
X248021Y729664D01*
Y789608D01*
X248474D01*
X251846Y790279D01*
X255251Y790767D01*
X255731Y791051D01*
X256278Y791160D01*
X259139Y793072D01*
X262095Y794824D01*
X264351Y796849D01*
X266629Y798371D01*
X267501Y799677D01*
X268622Y800682D01*
X268956Y801128D01*
X269420Y801438D01*
X271331Y804298D01*
X273392Y807049D01*
X273530Y807590D01*
X273840Y808054D01*
X274511Y811424D01*
X275363Y814758D01*
X275284Y815311D01*
X275392Y815857D01*
Y819017D01*
X275588Y820000D01*
Y900000D01*
X275392Y900983D01*
Y1042700D01*
X273840Y1050504D01*
X269420Y1057120D01*
X266554Y1059986D01*
X265997Y1060819D01*
X265164Y1061375D01*
X262930Y1063609D01*
X256314Y1068030D01*
X253884Y1068513D01*
X107978Y1214419D01*
X101362Y1218840D01*
X93559Y1220392D01*
D02*
G37*
G36*
X147335Y787164D02*
X77335D01*
Y672164D01*
X147335D01*
Y787164D01*
D02*
G37*
G36*
X860940Y530000D02*
X839060D01*
X818845Y521627D01*
X803374Y506155D01*
X795000Y485940D01*
Y464060D01*
X799021Y454354D01*
Y412063D01*
X798371Y411629D01*
X791741Y401705D01*
X789412Y390000D01*
Y310000D01*
X791741Y298295D01*
X792920Y296530D01*
X797902Y287934D01*
X789683Y280255D01*
X788893Y279727D01*
X782262Y269804D01*
X779934Y258098D01*
Y198098D01*
X782262Y186393D01*
X788893Y176470D01*
X798816Y169839D01*
X810521Y167511D01*
X890521D01*
X902227Y169839D01*
X912150Y176470D01*
X918780Y186393D01*
X921109Y198098D01*
Y258098D01*
X918780Y269804D01*
X912150Y279727D01*
X910639Y280737D01*
X902745Y287425D01*
X907402Y297011D01*
X908259Y298295D01*
X910588Y310000D01*
Y390000D01*
X908259Y401705D01*
X901629Y411629D01*
X900980Y412063D01*
Y454354D01*
X905000Y464060D01*
Y485940D01*
X896627Y506155D01*
X881155Y521627D01*
X860940Y530000D01*
D02*
G37*
G36*
X13657Y-403250D02*
X-5657D01*
X-24312Y-408249D01*
X-41038Y-417905D01*
X-54695Y-431562D01*
X-64351Y-448288D01*
X-69350Y-466943D01*
Y-486257D01*
X-64351Y-504912D01*
X-54695Y-521638D01*
X-41038Y-535295D01*
X-24312Y-544951D01*
X-5657Y-549950D01*
X13657D01*
X32312Y-544951D01*
X49038Y-535295D01*
X62695Y-521638D01*
X72351Y-504912D01*
X77350Y-486257D01*
Y-466943D01*
X72351Y-448288D01*
X62695Y-431562D01*
X49038Y-417905D01*
X32312Y-408249D01*
X13657Y-403250D01*
D02*
G37*
%LPD*%
G36*
X244369Y1049190D02*
X248511D01*
X255001Y1042700D01*
Y815857D01*
X248474Y810000D01*
X183258D01*
X175000Y818257D01*
Y959190D01*
X34190D01*
X-70405Y854595D01*
Y145405D01*
X-25000Y100000D01*
X164601D01*
Y87699D01*
X217501D01*
Y62299D01*
X164601D01*
Y37700D01*
X217500D01*
Y12300D01*
X164601D01*
Y-9352D01*
X161942Y-12011D01*
X100000D01*
X-37990Y-12010D01*
X-200000Y150000D01*
X-200000Y325000D01*
X-186362Y338638D01*
X-183034Y340861D01*
X-180811Y344189D01*
X-175000Y350000D01*
Y357844D01*
X-174076Y362490D01*
Y422490D01*
X-175000Y427137D01*
Y475000D01*
X-425000D01*
X-450000Y500000D01*
X-450000Y575000D01*
X-425000Y600000D01*
X-300000D01*
X-275000Y625000D01*
Y975000D01*
X-375000Y1075000D01*
X-900000D01*
X-925000Y1100000D01*
Y1175000D01*
X-900000Y1200000D01*
X93559D01*
X244369Y1049190D01*
D02*
G37*
G36*
X-295392Y966553D02*
Y633447D01*
X-308447Y620392D01*
X-424999D01*
X-425000Y620392D01*
X-432804Y618840D01*
X-439419Y614419D01*
X-464419Y589419D01*
X-468840Y582804D01*
X-470392Y575000D01*
X-470392Y500001D01*
X-470392Y500000D01*
X-468840Y492196D01*
X-464419Y485581D01*
X-439419Y460581D01*
X-437933Y459587D01*
X-436662Y445447D01*
X-436900Y444786D01*
X-443268Y435255D01*
X-445480Y424138D01*
X-524539D01*
Y429804D01*
X-526867Y441509D01*
X-533498Y451433D01*
X-543421Y458063D01*
X-555126Y460392D01*
X-559597D01*
X-559718Y460999D01*
X-566348Y470923D01*
X-596132Y500706D01*
X-596055Y501490D01*
X-589977Y510587D01*
X-587843Y521317D01*
Y626316D01*
X-589977Y637046D01*
X-596055Y646143D01*
X-605151Y652221D01*
X-615881Y654355D01*
X-660881D01*
X-671611Y652221D01*
X-677301Y648419D01*
X-685881Y646999D01*
X-694192Y648374D01*
X-696740Y663030D01*
X-696473Y663874D01*
X-688386Y671962D01*
X-575000D01*
X-564270Y674096D01*
X-555174Y680174D01*
X-523555Y711793D01*
X-517477Y720889D01*
X-515343Y731619D01*
Y734380D01*
X-510151Y735412D01*
X-501055Y741490D01*
X-494977Y750587D01*
X-492843Y761317D01*
Y866316D01*
X-494977Y877046D01*
X-501055Y886143D01*
X-510151Y892221D01*
X-520881Y894355D01*
X-565881D01*
X-576611Y892221D01*
X-585707Y886143D01*
X-591785Y877046D01*
X-593920Y866316D01*
Y761317D01*
X-591785Y750587D01*
X-585708Y741491D01*
X-585514Y739529D01*
X-595427Y728039D01*
X-688327D01*
X-692179Y740739D01*
X-691055Y741490D01*
X-684977Y750587D01*
X-682842Y761317D01*
Y811600D01*
X-682401Y813817D01*
Y945361D01*
X-678583D01*
Y1054608D01*
X-383447D01*
X-295392Y966553D01*
D02*
G37*
G36*
X-939419Y1085581D02*
X-939418Y1085580D01*
X-920928Y1067090D01*
X-918583Y1055361D01*
X-918583Y1055361D01*
Y945361D01*
X-784361D01*
Y813817D01*
X-783920Y811600D01*
Y761317D01*
X-781785Y750587D01*
X-775707Y741490D01*
X-766611Y735412D01*
X-755881Y733278D01*
X-722554D01*
X-718701Y720578D01*
X-719826Y719826D01*
X-753207Y686445D01*
X-759285Y677349D01*
X-761420Y666619D01*
Y653253D01*
X-766611Y652221D01*
X-775707Y646143D01*
X-781785Y637046D01*
X-783920Y626316D01*
Y590131D01*
X-796620Y589298D01*
X-800627Y595295D01*
X-810550Y601925D01*
X-822256Y604254D01*
X-902255D01*
X-913961Y601925D01*
X-923884Y595295D01*
X-925771Y592472D01*
X-953377D01*
X-959040Y600947D01*
X-968964Y607578D01*
X-980669Y609906D01*
X-1040669D01*
X-1052374Y607578D01*
X-1062298Y600947D01*
X-1068928Y591024D01*
X-1071256Y579318D01*
Y499319D01*
X-1068928Y487613D01*
X-1062298Y477690D01*
X-1060560Y476529D01*
Y452223D01*
X-1060623Y452210D01*
X-1070547Y445580D01*
X-1077177Y435656D01*
X-1079506Y423951D01*
Y363951D01*
X-1077177Y352246D01*
X-1070547Y342322D01*
X-1060623Y335692D01*
X-1048918Y333363D01*
X-968918D01*
X-957213Y335692D01*
X-947289Y342322D01*
X-940659Y352246D01*
X-938331Y363951D01*
Y423951D01*
X-940659Y435656D01*
X-947289Y445580D01*
X-957213Y452210D01*
X-958601Y452486D01*
Y478347D01*
X-952410Y487613D01*
X-951833Y490513D01*
X-921603D01*
X-913961Y485407D01*
X-902255Y483078D01*
X-822256D01*
X-810550Y485407D01*
X-800627Y492037D01*
X-798239Y495611D01*
X-766908D01*
X-766611Y495412D01*
X-755881Y493278D01*
X-710881D01*
X-700151Y495412D01*
X-694461Y499214D01*
X-685881Y500634D01*
X-677301Y499214D01*
X-671611Y495412D01*
X-664498Y493997D01*
X-662475Y483827D01*
X-655845Y473903D01*
X-636452Y454511D01*
X-636755Y451432D01*
X-643386Y441509D01*
X-645714Y429804D01*
Y349804D01*
X-643386Y338099D01*
X-636755Y328175D01*
X-626832Y321545D01*
X-615126Y319216D01*
X-555126D01*
X-543421Y321545D01*
X-533498Y328175D01*
X-526867Y338099D01*
X-524539Y349804D01*
Y362962D01*
X-445480D01*
X-443268Y351845D01*
X-436638Y341921D01*
X-426714Y335291D01*
X-415009Y332962D01*
X-335009D01*
X-323304Y335291D01*
X-319529Y337813D01*
X-308882Y340265D01*
X-301122Y337407D01*
X-296368Y334231D01*
X-284663Y331903D01*
X-230233D01*
X-220392Y319202D01*
X-220392Y150000D01*
X-218840Y142197D01*
X-214419Y135581D01*
X-78561Y-277D01*
X-83422Y-12011D01*
X-1240885D01*
Y36625D01*
X-1242826Y46379D01*
X-1248351Y54649D01*
X-1279718Y86016D01*
X-1284931Y89499D01*
X-1286128Y95517D01*
X-1289123Y100000D01*
X-1286128Y104483D01*
X-1284285Y113750D01*
Y136250D01*
X-1286128Y145517D01*
X-1289123Y150000D01*
X-1286128Y154483D01*
X-1284285Y163750D01*
Y186249D01*
X-1277822Y194124D01*
X-1219597D01*
X-1217312Y190705D01*
X-1207389Y184074D01*
X-1195683Y181746D01*
X-1115684D01*
X-1103978Y184074D01*
X-1094055Y190705D01*
X-1093081Y192163D01*
X-1070308D01*
X-1060623Y185692D01*
X-1048918Y183363D01*
X-968918D01*
X-957213Y185692D01*
X-947289Y192322D01*
X-940659Y202246D01*
X-938331Y213951D01*
Y273951D01*
X-940659Y285656D01*
X-947289Y295580D01*
X-957213Y302210D01*
X-968918Y304539D01*
X-1048918D01*
X-1060623Y302210D01*
X-1070547Y295580D01*
X-1071521Y294122D01*
X-1094293D01*
X-1103978Y300593D01*
X-1115684Y302921D01*
X-1195683D01*
X-1207389Y300593D01*
X-1217312Y293962D01*
X-1222707Y285887D01*
X-1271006D01*
X-1279062Y295705D01*
X-1278705Y297500D01*
Y307299D01*
X-1362250D01*
Y332699D01*
X-1278705D01*
Y342500D01*
X-1281259Y355337D01*
X-1288530Y366219D01*
X-1299413Y373491D01*
X-1304611Y374525D01*
X-1309917Y388472D01*
X-1303605Y396698D01*
X-1296552Y413726D01*
X-1294146Y432000D01*
X-1296552Y450273D01*
X-1303605Y467302D01*
X-1314825Y481924D01*
X-1329448Y493144D01*
X-1346476Y500198D01*
X-1364750Y502604D01*
X-1438493D01*
X-1442877Y508341D01*
X-1446237Y515304D01*
X-1444313Y524973D01*
Y604972D01*
X-1446642Y616678D01*
X-1453272Y626601D01*
X-1463196Y633232D01*
X-1474901Y635560D01*
X-1531593D01*
X-1536374Y643708D01*
X-1537144Y647969D01*
X-1098930Y1086184D01*
X-939822D01*
X-939419Y1085581D01*
D02*
G37*
G36*
X55174Y255174D02*
X64270Y249096D01*
X75000Y246961D01*
X151036D01*
X177798Y220200D01*
X175000Y207500D01*
D01*
X172598Y201433D01*
X171160Y197804D01*
X170901Y196498D01*
X169608Y190000D01*
Y160000D01*
X171160Y152196D01*
X175000Y146450D01*
Y142500D01*
X180191D01*
X182196Y141160D01*
X190000Y139608D01*
X240000D01*
X247804Y141160D01*
X254420Y145581D01*
X258840Y152196D01*
X260061Y158335D01*
X270001Y165000D01*
X534372D01*
X541600Y161599D01*
X545000Y154371D01*
Y90000D01*
Y-10000D01*
Y-104371D01*
X541600Y-111600D01*
X534372Y-115000D01*
X275629D01*
X268401Y-111600D01*
X265000Y-104371D01*
Y-10000D01*
Y110000D01*
X181973D01*
X179020Y114419D01*
X172404Y118840D01*
X164601Y120392D01*
X-16553D01*
X-50013Y153852D01*
Y342400D01*
X-37313Y347661D01*
X55174Y255174D01*
D02*
G37*
G36*
X570000Y204500D02*
X555500Y190000D01*
X540000D01*
Y240000D01*
X570000D01*
Y204500D01*
D02*
G37*
G36*
X270000Y190000D02*
X254500D01*
X240000Y204500D01*
Y240000D01*
X270000D01*
Y190000D01*
D02*
G37*
G36*
X620000Y160000D02*
X570000D01*
Y175500D01*
X584500Y190000D01*
X620000D01*
Y160000D01*
D02*
G37*
G36*
X240000Y175500D02*
Y160000D01*
X190000D01*
Y190000D01*
X225500D01*
X240000Y175500D01*
D02*
G37*
G36*
X620000Y-140000D02*
X584500D01*
X570000Y-125500D01*
Y-110000D01*
X620000D01*
Y-140000D01*
D02*
G37*
G36*
X240000Y-125500D02*
X225500Y-140000D01*
X190000D01*
Y-110000D01*
X240000D01*
Y-125500D01*
D02*
G37*
G36*
X570000Y-154500D02*
Y-190000D01*
X540000D01*
Y-140000D01*
X555500D01*
X570000Y-154500D01*
D02*
G37*
G36*
X270000Y-190000D02*
X240000D01*
Y-154500D01*
X254500Y-140000D01*
X270000D01*
Y-190000D01*
D02*
G37*
G36*
X-317615Y-100690D02*
X-321629Y-103371D01*
X-321629Y-103372D01*
X-398478Y-180221D01*
X-405109Y-190145D01*
X-407437Y-201850D01*
X-407437Y-201851D01*
Y-255754D01*
X-412772Y-257964D01*
X-430536Y-275728D01*
X-440150Y-298939D01*
Y-317157D01*
X-452850Y-322417D01*
X-458962Y-316305D01*
X-475688Y-306649D01*
X-494343Y-301650D01*
X-513657D01*
X-532312Y-306649D01*
X-549038Y-316305D01*
X-562695Y-329962D01*
X-572351Y-346688D01*
X-577350Y-365343D01*
Y-384657D01*
X-572351Y-403312D01*
X-562695Y-420038D01*
X-549038Y-433695D01*
X-532312Y-443351D01*
X-513657Y-448350D01*
X-494343D01*
X-475688Y-443351D01*
X-458962Y-433695D01*
X-452850Y-427583D01*
X-440150Y-432843D01*
Y-451061D01*
X-430536Y-474272D01*
X-422882Y-481926D01*
Y-924822D01*
X-419389Y-942380D01*
X-409443Y-957265D01*
X-378399Y-988309D01*
X-387527Y-1004118D01*
X-1146706D01*
X-1493503Y-657321D01*
X-1488643Y-645588D01*
X-1470000D01*
X-1458295Y-643259D01*
X-1448371Y-636629D01*
X-1441741Y-626705D01*
X-1439412Y-615000D01*
Y-535000D01*
X-1441741Y-523295D01*
X-1447080Y-515304D01*
X-1444889Y-507813D01*
X-1441626Y-502604D01*
X-1364750D01*
X-1346476Y-500198D01*
X-1329448Y-493145D01*
X-1314825Y-481925D01*
X-1303605Y-467302D01*
X-1296552Y-450274D01*
X-1294146Y-432000D01*
X-1296552Y-413727D01*
X-1303605Y-396698D01*
X-1314825Y-382076D01*
X-1329448Y-370855D01*
X-1346476Y-363802D01*
X-1364750Y-361396D01*
X-1474750D01*
X-1493024Y-363802D01*
X-1510052Y-370855D01*
X-1524675Y-382076D01*
X-1535895Y-396698D01*
X-1542948Y-413727D01*
X-1545354Y-432000D01*
X-1542948Y-450274D01*
X-1535895Y-467302D01*
X-1524675Y-481925D01*
X-1520597Y-485054D01*
X-1520291Y-488726D01*
X-1523713Y-498670D01*
X-1526700Y-498647D01*
X-1596961Y-428386D01*
Y-261614D01*
X-1538386Y-203039D01*
X-1449773D01*
X-1439938Y-215739D01*
X-1440289Y-217500D01*
Y-232948D01*
X-1450849Y-240004D01*
X-1459307Y-236500D01*
X-1480193D01*
X-1499489Y-244493D01*
X-1514257Y-259261D01*
X-1522250Y-278557D01*
Y-299443D01*
X-1514257Y-318739D01*
X-1499489Y-333508D01*
X-1480193Y-341500D01*
X-1459307D01*
X-1440011Y-333508D01*
X-1425243Y-318739D01*
X-1417250Y-299443D01*
Y-294643D01*
X-1412250Y-290539D01*
X-1312250D01*
X-1301520Y-288405D01*
X-1301190Y-288184D01*
X-1266236D01*
X-1248678Y-284692D01*
X-1233793Y-274746D01*
X-1220598Y-261550D01*
X-1214132D01*
X-1193917Y-253177D01*
X-1178446Y-237705D01*
X-1170072Y-217491D01*
Y-195610D01*
X-1178446Y-175396D01*
X-1193917Y-159924D01*
X-1214132Y-151551D01*
X-1236012D01*
X-1256227Y-159924D01*
X-1271585Y-175282D01*
X-1272249Y-175273D01*
X-1284285Y-172594D01*
Y-163750D01*
X-1286128Y-154483D01*
X-1289123Y-150000D01*
X-1286128Y-145517D01*
X-1284285Y-136250D01*
Y-113750D01*
X-1286128Y-104483D01*
X-1289123Y-100000D01*
X-1286669Y-96327D01*
X-1281726Y-93024D01*
X-1276692Y-87990D01*
X-321468D01*
X-317615Y-100690D01*
D02*
G37*
G36*
X876911Y-111629D02*
X886835Y-118260D01*
X898540Y-120588D01*
X911565D01*
X913777Y-131706D01*
X920407Y-141629D01*
X930331Y-148260D01*
X942036Y-150588D01*
X1022036D01*
X1033741Y-148260D01*
X1043665Y-141629D01*
X1045179Y-139362D01*
X1061134Y-137357D01*
X1086078Y-162300D01*
X1080817Y-175000D01*
X1050000D01*
Y-450000D01*
X1202275D01*
X1205036Y-450549D01*
X1219412D01*
Y-487330D01*
X1137330Y-569412D01*
X1064705D01*
X1052623Y-557331D01*
Y-510001D01*
X1050295Y-498295D01*
X1043665Y-488372D01*
X1033741Y-481741D01*
X1022036Y-479413D01*
X942036D01*
X930331Y-481741D01*
X920407Y-488372D01*
X913777Y-498295D01*
X912800Y-503207D01*
X899289Y-506032D01*
X818088Y-424830D01*
Y-112501D01*
X818088Y-112500D01*
X815759Y-100795D01*
X809129Y-90871D01*
X809128Y-90871D01*
X786280Y-68022D01*
X791140Y-56289D01*
X821571D01*
X876911Y-111629D01*
D02*
G37*
D10*
X364368Y999190D02*
D03*
X214368D02*
D03*
X365000Y860000D02*
D03*
X215000D02*
D03*
X585000Y-750000D02*
D03*
X735000D02*
D03*
X380082Y-747811D02*
D03*
X230082D02*
D03*
X700000Y350000D02*
D03*
X850000D02*
D03*
X-585126Y389804D02*
D03*
X-735126D02*
D03*
X-1010669Y539318D02*
D03*
X-1160669D02*
D03*
X-1350000Y-575000D02*
D03*
X-1500000D02*
D03*
X-1354901Y564972D02*
D03*
X-1504901D02*
D03*
D11*
X-1362250Y25000D02*
D03*
Y75000D02*
D03*
Y-75000D02*
D03*
Y-25000D02*
D03*
Y125000D02*
D03*
Y175000D02*
D03*
Y-125000D02*
D03*
Y-175000D02*
D03*
D12*
Y240000D02*
D03*
Y320000D02*
D03*
Y-240000D02*
D03*
Y-320000D02*
D03*
D13*
X1237036Y-385001D02*
D03*
Y-245001D02*
D03*
X1127036D02*
D03*
Y-385001D02*
D03*
D14*
X-798583Y1145361D02*
D03*
Y1000361D02*
D03*
D15*
X57335Y599664D02*
D03*
X467336D02*
D03*
D16*
X112335Y469664D02*
D03*
X162335D02*
D03*
X212335D02*
D03*
X262336D02*
D03*
X312335D02*
D03*
X362335D02*
D03*
X412335D02*
D03*
Y729664D02*
D03*
X362335D02*
D03*
X312335D02*
D03*
X262336D02*
D03*
X212335D02*
D03*
X162335D02*
D03*
X112335D02*
D03*
D17*
X1241583Y165000D02*
D03*
Y15000D02*
D03*
X700000Y-440000D02*
D03*
Y-290000D02*
D03*
X982036Y-240000D02*
D03*
Y-90000D02*
D03*
Y-390001D02*
D03*
Y-540001D02*
D03*
X850521Y78098D02*
D03*
Y228098D02*
D03*
X711125Y228031D02*
D03*
Y78031D02*
D03*
X32332Y189170D02*
D03*
Y39170D02*
D03*
X-862256Y393666D02*
D03*
Y543666D02*
D03*
X-244663Y542490D02*
D03*
Y392490D02*
D03*
X-375009Y543550D02*
D03*
Y393550D02*
D03*
X-445782Y1149988D02*
D03*
Y999988D02*
D03*
X-1008918Y243951D02*
D03*
Y393951D02*
D03*
X-1155683Y242334D02*
D03*
Y392333D02*
D03*
D18*
X210000Y-125000D02*
D03*
X600000Y175000D02*
D03*
X210000D02*
D03*
X600000Y-125000D02*
D03*
D19*
X255000Y220000D02*
D03*
X555000Y-170000D02*
D03*
X255000D02*
D03*
X555000Y220000D02*
D03*
D20*
X592500Y-75000D02*
D03*
Y-25000D02*
D03*
Y25000D02*
D03*
Y75000D02*
D03*
Y125000D02*
D03*
X217500D02*
D03*
Y75000D02*
D03*
Y25000D02*
D03*
Y-25000D02*
D03*
Y-75000D02*
D03*
D21*
X505000Y212500D02*
D03*
X455000D02*
D03*
X405000D02*
D03*
X355000D02*
D03*
X305000D02*
D03*
Y-162500D02*
D03*
X355000D02*
D03*
X405000D02*
D03*
X455000D02*
D03*
X505000D02*
D03*
D22*
X-543381Y573816D02*
D03*
X-638381D02*
D03*
X-733381D02*
D03*
Y813817D02*
D03*
X-638381D02*
D03*
X-543381D02*
D03*
D23*
X-377000Y-438500D02*
D03*
X-250000D02*
D03*
X-123000D02*
D03*
X-377000Y-311500D02*
D03*
X-250000D02*
D03*
X-123000D02*
D03*
D24*
X-863530Y392391D02*
X-862256Y393666D01*
X-864805Y243096D02*
X-863530Y244370D01*
Y392391D01*
X700000Y350000D02*
X701120Y351119D01*
Y461984D02*
X702239Y463103D01*
X701120Y351119D02*
Y461984D01*
X-735126Y389804D02*
X-734495Y389173D01*
Y244714D02*
X-733865Y244083D01*
X-734495Y244714D02*
Y389173D01*
X-270728Y-1033728D02*
Y-826140D01*
X-225000Y-780412D02*
Y-775000D01*
X-287000Y-1050000D02*
X-270728Y-1033728D01*
Y-826140D02*
X-225000Y-780412D01*
X-125000Y-625000D02*
X-124000Y-624000D01*
Y-439500D01*
X-123000Y-438500D01*
X-377000Y-924822D02*
Y-438500D01*
Y-924822D02*
X-287000Y-1014822D01*
Y-1050000D02*
Y-1014822D01*
X-1675000Y-540711D02*
Y575000D01*
Y-540711D02*
X-1165711Y-1050000D01*
X-1675000Y575000D02*
X-1112837Y1137163D01*
X-1165711Y-1050000D02*
X-287000D01*
X983000Y-1258000D02*
Y-1050000D01*
X475000Y-1267619D02*
Y-1100000D01*
X-33000Y-1267000D02*
Y-1050000D01*
X705562Y233593D02*
Y344438D01*
Y233593D02*
X711125Y228031D01*
X700000Y350000D02*
X705562Y344438D01*
X1241583Y165000D02*
Y280372D01*
X700000Y-540000D02*
Y-440000D01*
X982243Y-315001D02*
X982460Y-315218D01*
X857036Y-315001D02*
X982243D01*
X-1168298Y389719D02*
Y404948D01*
X-1247499Y560630D02*
X-1243673Y556803D01*
X-1249671Y562801D02*
X-1247499Y560630D01*
X857036Y-315001D02*
X857041Y-315006D01*
X711125Y78031D02*
X711158Y78065D01*
X850488D02*
X850521Y78098D01*
X711158Y78065D02*
X850488D01*
X365000Y860000D02*
X478167D01*
X477755Y999190D02*
X483366Y1004801D01*
X364368Y999190D02*
X477755D01*
X-1350000Y-575000D02*
X-1225000D01*
X-1557794Y-107945D02*
Y36216D01*
X-1559524Y-109675D02*
X-1557794Y-107945D01*
Y36216D02*
X-1556065Y37946D01*
X-1359948Y-242303D02*
X-1266236D01*
X-1230484Y-206551D01*
X-1225072D01*
X-638381Y813817D02*
Y938426D01*
X-573060Y998335D02*
X-447435D01*
X-1168298Y404948D02*
X-1155683Y392333D01*
X-1234184Y323833D02*
X-1168298Y389719D01*
X-1244190Y323833D02*
X-1234184D01*
X-1248017Y320006D02*
X-1244190Y323833D01*
X-1248020Y320003D02*
X-1248017Y320006D01*
X-1362247Y320003D02*
X-1248020D01*
X-1362250Y320000D02*
X-1362247Y320003D01*
X-1352730Y562801D02*
X-1249671D01*
X-1175669Y556803D02*
X-1160669Y541803D01*
Y539318D02*
Y541803D01*
X-1243673Y556803D02*
X-1175669D01*
X-1354901Y564972D02*
X-1352730Y562801D01*
X-912256Y541492D02*
X-738381D01*
X-733381Y546492D01*
Y573816D01*
X-1362244Y240006D02*
X-1158011D01*
X-638381Y938426D02*
X-580126Y996682D01*
X-574713D02*
X-573060Y998335D01*
X-447435D02*
X-445782Y999988D01*
X-580126Y996682D02*
X-574713D01*
D25*
X850000Y350000D02*
Y475000D01*
Y350000D02*
X850261Y349739D01*
Y228359D02*
X850521Y228098D01*
X850261Y228359D02*
Y349739D01*
X-896157Y1140361D02*
X-803583D01*
X-1112837Y1137163D02*
X-899354D01*
X-803583Y1140361D02*
X-798583Y1145361D01*
X-899354Y1137163D02*
X-896157Y1140361D01*
X482541Y-840821D02*
Y-748905D01*
X583905D01*
X381177D02*
X482541D01*
X982460Y-315218D02*
Y-265425D01*
Y-365011D02*
Y-315218D01*
X982036Y-265000D02*
X982460Y-265425D01*
X-245193Y543020D02*
X-244663Y542490D01*
X-375009Y543550D02*
X-374479Y543020D01*
X-245193D01*
X-1008495Y541492D02*
X-912256D01*
X-1010669Y539318D02*
X-1008495Y541492D01*
X-1009581Y394613D02*
Y529109D01*
Y394613D02*
X-1008918Y393951D01*
X-1155683Y242334D02*
X-1154875Y243142D01*
X-1009727D01*
X-1008918Y243951D01*
X-738381Y1000000D02*
X-733381Y995000D01*
Y813817D02*
Y995000D01*
X-800000Y1000000D02*
X-738381D01*
D26*
X46503Y175000D02*
X126924D01*
X32332Y189170D02*
X46503Y175000D01*
X212335Y857335D02*
X215000Y860000D01*
X112500Y825000D02*
X125000D01*
X162335Y787664D01*
Y729664D02*
Y787664D01*
X362335Y729664D02*
Y847335D01*
X267336Y734664D02*
Y772519D01*
X314816Y820000D02*
X335000D01*
X362335Y847335D02*
Y857335D01*
X262336Y729664D02*
X267336Y734664D01*
Y772519D02*
X314816Y820000D01*
X335000D02*
X362335Y847335D01*
X412335Y787335D02*
X478167Y853167D01*
Y860000D01*
X412335Y729664D02*
Y787335D01*
X362335Y857335D02*
X365000Y860000D01*
X275000Y363530D02*
X312335Y400866D01*
Y469664D01*
X275000Y350000D02*
Y363530D01*
X-250000Y-650000D02*
Y-438500D01*
X-243350Y-304850D02*
Y-238350D01*
X-250000Y-311500D02*
X-243350Y-304850D01*
Y-238350D02*
X-175000Y-170000D01*
X255000D01*
X-376849Y-274849D02*
Y-201850D01*
X-377000Y-275000D02*
X-376849Y-274849D01*
Y-201850D02*
X-300000Y-125000D01*
X210000D01*
X171924Y130000D02*
X212500D01*
X217500Y125000D01*
X126924Y175000D02*
X171924Y130000D01*
X700000Y-290000D02*
Y-222500D01*
X602500Y-125000D02*
X700000Y-222500D01*
X600000Y-125000D02*
X602500D01*
X1250000Y-500000D02*
Y-397965D01*
X1237036Y-385001D02*
X1250000Y-397965D01*
X1150000Y-600000D02*
X1250000Y-500000D01*
X1052035Y-600000D02*
X1150000D01*
X982036Y-540001D02*
X992036D01*
X1052035Y-600000D01*
X787500Y-437500D02*
X890001Y-540001D01*
X982036D01*
X750000Y-75000D02*
X787500Y-112500D01*
Y-437500D02*
Y-112500D01*
X592500Y-75000D02*
X750000D01*
X834241Y-25701D02*
X898540Y-90000D01*
X593202Y-25701D02*
X834241D01*
X221000Y-1100000D02*
X230082Y-1090918D01*
Y-762811D01*
X505000Y-487892D01*
Y-162500D01*
X555000Y-530000D02*
X731716Y-706716D01*
X555000Y-530000D02*
Y-170000D01*
X731716Y-778284D02*
Y-706716D01*
X729000Y-781000D02*
X731716Y-778284D01*
X729000Y-1100000D02*
Y-781000D01*
X-1625000Y175000D02*
X-1575000Y125000D01*
X-1625000Y434873D02*
X-1504901Y554972D01*
X-1625000Y175000D02*
Y434873D01*
X1123752Y-241716D02*
Y-156716D01*
X1057036Y-90000D02*
X1123752Y-156716D01*
X898540Y-90000D02*
X1057036D01*
X1123752Y-241716D02*
X1127036Y-245001D01*
X708094Y75000D02*
X711125Y78031D01*
X592500Y75000D02*
X708094D01*
X-1436219Y220000D02*
X-1382250D01*
X-1452201Y204018D02*
X-1436219Y220000D01*
X-1557218Y204018D02*
X-1452201D01*
X-1382250Y220000D02*
X-1362250Y240000D01*
X-1575000Y125000D02*
X-1362250D01*
X-1504901Y554972D02*
Y564972D01*
X-375009Y393020D02*
X-295193D01*
X-424479D02*
X-375009D01*
X-425009Y393550D02*
X-424479Y393020D01*
X-295193D02*
X-294663Y392490D01*
X-584980Y393550D02*
X-425009D01*
X-586135Y392395D02*
X-584980Y393550D01*
X-634216Y495532D02*
X-587977Y449294D01*
X-638381Y573816D02*
X-634216Y569651D01*
X-587977Y393649D02*
Y449294D01*
X-634216Y495532D02*
Y569651D01*
D27*
X212335Y729664D02*
Y857335D01*
X1239005Y-243031D02*
Y-138393D01*
X1237036Y-245001D02*
X1239005Y-243031D01*
Y-138393D02*
X1240974Y-136424D01*
X1127036Y-495000D02*
Y-385001D01*
D28*
X-543381Y603817D02*
X-453001Y694197D01*
X-405861D02*
X-400121Y699937D01*
X-453001Y694197D02*
X-405861D01*
X-543381Y573816D02*
Y603817D01*
X-1362250Y-320000D02*
X-1230000D01*
D29*
X1318841Y15531D02*
X1341528Y-7155D01*
Y-41527D02*
X1350000Y-50000D01*
X1341528Y-41527D02*
Y-7155D01*
X657663Y15531D02*
X1318841D01*
X141553Y368850D02*
X149479Y376776D01*
Y378687D01*
X162335Y391543D01*
Y469664D01*
X311798Y683787D02*
X353593Y641993D01*
X509327D01*
X542334Y391125D02*
Y608985D01*
X505000Y353791D02*
X542334Y391125D01*
X505000Y222657D02*
Y353791D01*
X509327Y641993D02*
X542334Y608985D01*
X501662Y219319D02*
X505000Y222657D01*
X311798Y683787D02*
Y729127D01*
X312335Y729664D01*
X555000Y278075D02*
X600000Y323075D01*
X555000Y220000D02*
Y278075D01*
X600000Y323075D02*
Y325000D01*
X119835Y477164D02*
Y511484D01*
X158351Y550000D02*
X365937D01*
X112335Y469664D02*
X119835Y477164D01*
Y511484D02*
X158351Y550000D01*
X365937D02*
X450000D01*
X362335Y546398D02*
X365937Y550000D01*
X362335Y469664D02*
Y546398D01*
X305000Y212500D02*
Y284605D01*
X412335Y391940D01*
Y469664D01*
X450000Y550000D02*
X475000Y525000D01*
Y408643D02*
Y525000D01*
X355000Y288643D02*
X475000Y408643D01*
X489836Y599664D02*
X512336Y577164D01*
X467336Y599664D02*
X489836D01*
X512336Y403552D02*
Y577164D01*
X405000Y296217D02*
X512336Y403552D01*
X355000Y212500D02*
Y288643D01*
X204053Y376071D02*
X254836Y426854D01*
Y462164D02*
X262336Y469664D01*
X204053Y314322D02*
Y376071D01*
X254836Y426854D02*
Y462164D01*
X204053Y314322D02*
X255000Y263375D01*
Y220000D02*
Y263375D01*
X-25000Y375000D02*
Y539829D01*
X34835Y599664D02*
X57335D01*
X-25000Y539829D02*
X34835Y599664D01*
X405000Y212500D02*
Y296217D01*
X75000Y275000D02*
X162650D01*
X-25000Y375000D02*
X75000Y275000D01*
X162650D02*
X210000Y227650D01*
Y175000D02*
Y227650D01*
X648194Y25000D02*
X657663Y15531D01*
X592500Y25000D02*
X648194D01*
X-1625000Y-440000D02*
X-1500000Y-565000D01*
X-1625000Y-250000D02*
X-1550000Y-175000D01*
X-1625000Y-440000D02*
Y-250000D01*
X-1550000Y-175000D02*
X-1362250D01*
X-543381Y731619D02*
Y813817D01*
X-575000Y700000D02*
X-543381Y731619D01*
X-700000Y700000D02*
X-575000D01*
X-733381Y666619D02*
X-700000Y700000D01*
X-733381Y573816D02*
Y666619D01*
X-1500000Y-575000D02*
Y-565000D01*
D30*
X-1297742Y67992D02*
X-1266375Y36625D01*
X-1355242Y67992D02*
X-1297742D01*
X-1362250Y75000D02*
X-1355242Y67992D01*
X-1266375Y-37500D02*
Y36625D01*
X-1439750Y-61998D02*
Y14789D01*
X-1429539Y25000D01*
X-1439750Y-61998D02*
X-1428892Y-72856D01*
X-1406894D02*
X-1404750Y-75000D01*
X-1428892Y-72856D02*
X-1406894D01*
X-1404750Y-75000D02*
X-1299750D01*
X-1429539Y25000D02*
X-1362250D01*
X-1319750Y-25000D02*
X-1313663D01*
X-1362250D02*
X-1337250D01*
X-1319750D01*
X-1266375Y-37500D02*
X172501D01*
X-1287250D02*
X-1267375D01*
X-1313663Y-25000D02*
X-1299750D01*
X-1287957Y-36793D01*
X-1287250Y-62500D02*
X172501D01*
X185001Y-25000D02*
X217500D01*
X172501Y-37500D02*
X185001Y-25000D01*
X172501Y-62500D02*
X185001Y-75000D01*
X217500D01*
X-1299750Y-75000D02*
X-1287250Y-62500D01*
D31*
X983000Y-1050000D02*
D03*
X729000D02*
D03*
X475000D02*
D03*
X221000D02*
D03*
X-33000D02*
D03*
X-287000D02*
D03*
D32*
X-1419750Y-432000D02*
D03*
Y432000D02*
D03*
D33*
X-1469750Y289000D02*
D03*
Y-289000D02*
D03*
D34*
X-1837750Y432000D02*
D03*
Y-432000D02*
D03*
D35*
X-1700000Y1075000D02*
D03*
X1425000Y-1075000D02*
D03*
X-1700000D02*
D03*
X1425000Y1075000D02*
D03*
D36*
X-504000Y-375000D02*
D03*
X4000Y-273400D02*
D03*
Y-476600D02*
D03*
D37*
X1600007Y700006D02*
D03*
Y300006D02*
D03*
Y-99994D02*
D03*
Y-499995D02*
D03*
Y-1299995D02*
D03*
X1400007Y700006D02*
D03*
X1500007Y500006D02*
D03*
X1400007Y300006D02*
D03*
X1500007Y100006D02*
D03*
Y-299995D02*
D03*
X1400007Y-499995D02*
D03*
X1500007Y-699995D02*
D03*
X1200006Y700006D02*
D03*
X1300007Y500006D02*
D03*
Y-699995D02*
D03*
X1200006Y-899995D02*
D03*
Y-1299995D02*
D03*
X1000006Y1100006D02*
D03*
X1100006Y900006D02*
D03*
X1000006Y700006D02*
D03*
X1100006Y500006D02*
D03*
X1000006Y300006D02*
D03*
X1100006Y100006D02*
D03*
X1000006Y-899995D02*
D03*
X800006Y1100006D02*
D03*
X900006Y900006D02*
D03*
X800006Y700006D02*
D03*
Y-899995D02*
D03*
Y-1299995D02*
D03*
X600006Y1100006D02*
D03*
X700006Y900006D02*
D03*
X600006Y700006D02*
D03*
Y-899995D02*
D03*
Y-1299995D02*
D03*
X500006Y100006D02*
D03*
X400006Y-499995D02*
D03*
Y-899995D02*
D03*
X300006Y-299995D02*
D03*
X200006Y-499995D02*
D03*
Y-1299995D02*
D03*
X6Y700006D02*
D03*
Y-899995D02*
D03*
X-199994Y-1299995D02*
D03*
X-299994Y100006D02*
D03*
X-399994Y-1299995D02*
D03*
X-499994Y100006D02*
D03*
X-599994Y-499995D02*
D03*
X-499994Y-699995D02*
D03*
X-599994Y-899995D02*
D03*
Y-1299995D02*
D03*
X-799995Y700006D02*
D03*
X-699995Y100006D02*
D03*
Y-299995D02*
D03*
X-799995Y-499995D02*
D03*
X-699995Y-699995D02*
D03*
X-799995Y-899995D02*
D03*
Y-1299995D02*
D03*
X-899995Y900006D02*
D03*
X-999995Y700006D02*
D03*
X-899995Y100006D02*
D03*
Y-299995D02*
D03*
X-999995Y-499995D02*
D03*
X-899995Y-699995D02*
D03*
X-999995Y-899995D02*
D03*
Y-1299995D02*
D03*
X-1099995Y900006D02*
D03*
X-1199995Y700006D02*
D03*
X-1099995Y100006D02*
D03*
Y-299995D02*
D03*
Y-699995D02*
D03*
X-1199995Y-899995D02*
D03*
Y-1299995D02*
D03*
X-1399995Y1100006D02*
D03*
Y700006D02*
D03*
X-1299995Y-699995D02*
D03*
Y-1099995D02*
D03*
X-1399995Y-1299995D02*
D03*
X-1499995Y900006D02*
D03*
X-1799995Y700006D02*
D03*
Y300006D02*
D03*
Y-99994D02*
D03*
X-1699995Y-699995D02*
D03*
X-864805Y243096D02*
D03*
X702239Y463103D02*
D03*
X850000Y475000D02*
D03*
X126924Y175000D02*
D03*
X-733865Y244083D02*
D03*
X-400121Y699937D02*
D03*
X478167Y860000D02*
D03*
X141553Y368850D02*
D03*
X600000Y325000D02*
D03*
X112500Y825000D02*
D03*
X275000Y350000D02*
D03*
X-146579Y277689D02*
D03*
X1350000Y-50000D02*
D03*
X-250000Y-650000D02*
D03*
X-225000Y-775000D02*
D03*
X-125000Y-625000D02*
D03*
X983000Y-1258000D02*
D03*
X475000Y-1267619D02*
D03*
X-33000Y-1267000D02*
D03*
X482541Y-840821D02*
D03*
X1241583Y280372D02*
D03*
X700000Y-540000D02*
D03*
X1240974Y-136424D02*
D03*
X1127036Y-495000D02*
D03*
X857036Y-315001D02*
D03*
X483366Y1004801D02*
D03*
X-1225000Y-575000D02*
D03*
X-1557218Y204018D02*
D03*
X-1559524Y-109675D02*
D03*
X-1556065Y37946D02*
D03*
X-1225072Y-206551D02*
D03*
X-1230000Y-320000D02*
D03*
X-574713Y996682D02*
D03*
X-1248017Y320006D02*
D03*
X-1247499Y560630D02*
D03*
%TF.MD5,0cb972d98023b2dc6c603f56afeb5344*%
M02*
