%TF.GenerationSoftware,Altium Limited,Altium Designer,23.10.1 (27)*%
G04 Layer_Color=0*
%FSLAX45Y45*%
%MOMM*%
%TF.SameCoordinates,EB818210-93EB-4193-A47C-AA10A5AE6B3E*%
%TF.FilePolarity,Positive*%
%TF.FileFunction,Plated,1,2,PTH,Drill*%
%TF.Part,Single*%
G01*
G75*
%TA.AperFunction,ComponentDrill*%
%ADD66C,1.10000*%
%ADD67O,1.70000X0.60000*%
%ADD68O,1.40000X0.60000*%
%TA.AperFunction,OtherDrill,Pad Free-MH3 (-17mm,10.75mm)*%
%ADD69C,2.20000*%
%TA.AperFunction,OtherDrill,Pad Free-MH1 (14.25mm,-10.75mm)*%
%ADD70C,2.20000*%
%TA.AperFunction,OtherDrill,Pad Free-MH2 (-17mm,-10.75mm)*%
%ADD71C,2.20000*%
%TA.AperFunction,OtherDrill,Pad Free-MH (14.25mm,10.75mm)*%
%ADD72C,2.20000*%
%TA.AperFunction,ViaDrill,NotFilled*%
%ADD73C,0.30000*%
D66*
X983000Y-1050000D02*
D03*
X729000D02*
D03*
X475000D02*
D03*
X221000D02*
D03*
X-33000D02*
D03*
X-287000D02*
D03*
D67*
X-1419750Y-432000D02*
D03*
Y432000D02*
D03*
D68*
X-1837750D02*
D03*
Y-432000D02*
D03*
D69*
X-1700000Y1075000D02*
D03*
D70*
X1425000Y-1075000D02*
D03*
D71*
X-1700000D02*
D03*
D72*
X1425000Y1075000D02*
D03*
D73*
X1600007Y700006D02*
D03*
Y300006D02*
D03*
Y-99994D02*
D03*
Y-499995D02*
D03*
Y-1299995D02*
D03*
X1400007Y700006D02*
D03*
X1500007Y500006D02*
D03*
X1400007Y300006D02*
D03*
X1500007Y100006D02*
D03*
Y-299995D02*
D03*
X1400007Y-499995D02*
D03*
X1500007Y-699995D02*
D03*
X1200006Y700006D02*
D03*
X1300007Y500006D02*
D03*
Y-699995D02*
D03*
X1200006Y-899995D02*
D03*
Y-1299995D02*
D03*
X1000006Y1100006D02*
D03*
X1100006Y900006D02*
D03*
X1000006Y700006D02*
D03*
X1100006Y500006D02*
D03*
X1000006Y300006D02*
D03*
X1100006Y100006D02*
D03*
X1000006Y-899995D02*
D03*
X800006Y1100006D02*
D03*
X900006Y900006D02*
D03*
X800006Y700006D02*
D03*
Y-899995D02*
D03*
Y-1299995D02*
D03*
X600006Y1100006D02*
D03*
X700006Y900006D02*
D03*
X600006Y700006D02*
D03*
Y-899995D02*
D03*
Y-1299995D02*
D03*
X500006Y100006D02*
D03*
X400006Y-499995D02*
D03*
Y-899995D02*
D03*
X300006Y-299995D02*
D03*
X200006Y-499995D02*
D03*
Y-1299995D02*
D03*
X6Y700006D02*
D03*
Y-899995D02*
D03*
X-199994Y-1299995D02*
D03*
X-299994Y100006D02*
D03*
X-399994Y-1299995D02*
D03*
X-499994Y100006D02*
D03*
X-599994Y-499995D02*
D03*
X-499994Y-699995D02*
D03*
X-599994Y-899995D02*
D03*
Y-1299995D02*
D03*
X-799995Y700006D02*
D03*
X-699995Y100006D02*
D03*
Y-299995D02*
D03*
X-799995Y-499995D02*
D03*
X-699995Y-699995D02*
D03*
X-799995Y-899995D02*
D03*
Y-1299995D02*
D03*
X-899995Y900006D02*
D03*
X-999995Y700006D02*
D03*
X-899995Y100006D02*
D03*
Y-299995D02*
D03*
X-999995Y-499995D02*
D03*
X-899995Y-699995D02*
D03*
X-999995Y-899995D02*
D03*
Y-1299995D02*
D03*
X-1099995Y900006D02*
D03*
X-1199995Y700006D02*
D03*
X-1099995Y100006D02*
D03*
Y-299995D02*
D03*
Y-699995D02*
D03*
X-1199995Y-899995D02*
D03*
Y-1299995D02*
D03*
X-1399995Y1100006D02*
D03*
Y700006D02*
D03*
X-1299995Y-699995D02*
D03*
Y-1099995D02*
D03*
X-1399995Y-1299995D02*
D03*
X-1499995Y900006D02*
D03*
X-1799995Y700006D02*
D03*
Y300006D02*
D03*
Y-99994D02*
D03*
X-1699995Y-699995D02*
D03*
X-864805Y243096D02*
D03*
X702239Y463103D02*
D03*
X850000Y475000D02*
D03*
X126924Y175000D02*
D03*
X-733865Y244083D02*
D03*
X-400121Y699937D02*
D03*
X478167Y860000D02*
D03*
X141553Y368850D02*
D03*
X600000Y325000D02*
D03*
X112500Y825000D02*
D03*
X275000Y350000D02*
D03*
X-146579Y277689D02*
D03*
X1350000Y-50000D02*
D03*
X-250000Y-650000D02*
D03*
X-225000Y-775000D02*
D03*
X-125000Y-625000D02*
D03*
X983000Y-1258000D02*
D03*
X475000Y-1267619D02*
D03*
X-33000Y-1267000D02*
D03*
X482541Y-840821D02*
D03*
X1241583Y280372D02*
D03*
X700000Y-540000D02*
D03*
X1240974Y-136424D02*
D03*
X1127036Y-495000D02*
D03*
X857036Y-315001D02*
D03*
X483366Y1004801D02*
D03*
X-1225000Y-575000D02*
D03*
X-1557218Y204018D02*
D03*
X-1559524Y-109675D02*
D03*
X-1556065Y37946D02*
D03*
X-1225072Y-206551D02*
D03*
X-1230000Y-320000D02*
D03*
X-574713Y996682D02*
D03*
X-1248017Y320006D02*
D03*
X-1247499Y560630D02*
D03*
%TF.MD5,07c7e966b74c4491a217f1803a6b6c1a*%
M02*
