%TF.GenerationSoftware,Altium Limited,Altium Designer,23.10.1 (27)*%
G04 Layer_Physical_Order=2*
G04 Layer_Color=16711680*
%FSLAX45Y45*%
%MOMM*%
%TF.SameCoordinates,EB818210-93EB-4193-A47C-AA10A5AE6B3E*%
%TF.FilePolarity,Positive*%
%TF.FileFunction,Copper,L2,Bot,Signal*%
%TF.Part,Single*%
G01*
G75*
%TA.AperFunction,Conductor*%
%ADD24C,0.50000*%
%ADD26C,0.20000*%
%ADD29C,0.15000*%
%TA.AperFunction,TestPad*%
%ADD31C,1.80000*%
%ADD32O,2.10000X1.00000*%
%ADD33C,0.65000*%
%ADD34O,1.80000X1.00000*%
%TA.AperFunction,ViaPad*%
%ADD35C,4.00000*%
%TA.AperFunction,ComponentPad*%
%ADD36C,1.06700*%
%TA.AperFunction,ViaPad*%
%ADD37C,0.70000*%
G36*
X1725000Y-1350000D02*
X-2000001D01*
Y1350000D01*
X1725000D01*
Y-1350000D01*
D02*
G37*
%LPC*%
G36*
X825000Y645392D02*
X-50000D01*
X-57804Y643840D01*
X-64419Y639419D01*
X-64420Y639419D01*
X-214419Y489419D01*
X-218840Y482804D01*
X-220392Y475000D01*
Y245195D01*
X-218840Y237391D01*
X-214419Y230776D01*
X-214419Y230775D01*
X-194225Y210581D01*
X-194224Y210581D01*
X-187608Y206160D01*
X-179805Y204608D01*
X-100001D01*
X-100000Y204608D01*
X-92196Y206160D01*
X-85581Y210581D01*
X-60581Y235581D01*
X-56160Y242196D01*
X-54608Y250000D01*
Y441554D01*
X-46432Y449730D01*
X172058D01*
X204608Y417180D01*
Y393529D01*
X191908Y391003D01*
X188179Y400005D01*
X172708Y415476D01*
X152493Y423850D01*
X130613D01*
X110398Y415476D01*
X94926Y400005D01*
X86553Y379790D01*
Y357910D01*
X94926Y337695D01*
X110398Y322223D01*
X123174Y316931D01*
X123606Y314760D01*
X129684Y305664D01*
X204602Y230745D01*
X213699Y224667D01*
X224429Y222533D01*
X525571D01*
X536301Y224667D01*
X545398Y230745D01*
X585943Y271291D01*
X589060Y270000D01*
X610940D01*
X631155Y278374D01*
X646627Y293845D01*
X655000Y314060D01*
Y335940D01*
X646627Y356155D01*
X631155Y371627D01*
X610940Y380000D01*
X589060D01*
X568845Y371627D01*
X553374Y356155D01*
X545000Y335940D01*
Y314060D01*
X546291Y310943D01*
X513958Y278610D01*
X344437D01*
X339577Y290343D01*
X341755Y292521D01*
X346175Y299137D01*
X347727Y306940D01*
Y424157D01*
X428178Y504608D01*
X766552Y504608D01*
X779608Y491552D01*
Y450001D01*
X779608Y450000D01*
X781160Y442196D01*
X785581Y435581D01*
X810581Y410581D01*
X817196Y406160D01*
X825000Y404608D01*
X875000Y404608D01*
X882803Y406160D01*
X889419Y410580D01*
X889420Y410581D01*
X914419Y435581D01*
X918840Y442196D01*
X920392Y450000D01*
Y549999D01*
X920392Y550000D01*
X918840Y557804D01*
X914419Y564419D01*
X839419Y639419D01*
X832804Y643840D01*
X825000Y645392D01*
D02*
G37*
G36*
X-1364750Y502604D02*
X-1474750D01*
X-1493024Y500198D01*
X-1510052Y493144D01*
X-1524675Y481924D01*
X-1535895Y467302D01*
X-1542948Y450273D01*
X-1545354Y432000D01*
X-1542948Y413726D01*
X-1535895Y396698D01*
X-1524675Y382075D01*
X-1510052Y370855D01*
X-1493024Y363802D01*
X-1474750Y361396D01*
X-1364750D01*
X-1346476Y363802D01*
X-1329448Y370855D01*
X-1314825Y382075D01*
X-1303605Y396698D01*
X-1296552Y413726D01*
X-1294146Y432000D01*
X-1296552Y450273D01*
X-1303605Y467302D01*
X-1314825Y481924D01*
X-1329448Y493144D01*
X-1346476Y500198D01*
X-1364750Y502604D01*
D02*
G37*
G36*
X-1797750D02*
X-1877750D01*
X-1896023Y500198D01*
X-1913052Y493144D01*
X-1927674Y481924D01*
X-1938895Y467302D01*
X-1945948Y450273D01*
X-1948354Y432000D01*
X-1945948Y413726D01*
X-1938895Y396698D01*
X-1927674Y382075D01*
X-1913052Y370855D01*
X-1896023Y363802D01*
X-1877750Y361396D01*
X-1797750D01*
X-1779477Y363802D01*
X-1762448Y370855D01*
X-1747826Y382075D01*
X-1736605Y396698D01*
X-1729552Y413726D01*
X-1727146Y432000D01*
X-1729552Y450273D01*
X-1736605Y467302D01*
X-1747826Y481924D01*
X-1762448Y493144D01*
X-1779477Y500198D01*
X-1797750Y502604D01*
D02*
G37*
G36*
X-1459307Y341500D02*
X-1480193D01*
X-1499489Y333507D01*
X-1514257Y318739D01*
X-1522250Y299443D01*
Y278557D01*
X-1514257Y259261D01*
X-1499489Y244492D01*
X-1480193Y236500D01*
X-1459307D01*
X-1440011Y244492D01*
X-1425243Y259261D01*
X-1417250Y278557D01*
Y299443D01*
X-1425243Y318739D01*
X-1440011Y333507D01*
X-1459307Y341500D01*
D02*
G37*
G36*
X-1546278Y259018D02*
X-1568158D01*
X-1588373Y250645D01*
X-1603844Y235173D01*
X-1612218Y214958D01*
Y193078D01*
X-1603844Y172863D01*
X-1602523Y171542D01*
Y69269D01*
X-1602691Y69101D01*
X-1611065Y48886D01*
Y27006D01*
X-1602691Y6791D01*
X-1587220Y-8681D01*
X-1567005Y-17054D01*
X-1545125D01*
X-1524910Y-8681D01*
X-1509438Y6791D01*
X-1501065Y27006D01*
Y48886D01*
X-1509438Y69101D01*
X-1510760Y70422D01*
Y172695D01*
X-1510591Y172863D01*
X-1502218Y193078D01*
Y214958D01*
X-1510591Y235173D01*
X-1526063Y250645D01*
X-1546278Y259018D01*
D02*
G37*
G36*
X-1548584Y-54675D02*
X-1570464D01*
X-1590679Y-63048D01*
X-1606151Y-78520D01*
X-1614524Y-98735D01*
Y-120615D01*
X-1606151Y-140830D01*
X-1590679Y-156301D01*
X-1570464Y-164675D01*
X-1548584D01*
X-1528369Y-156301D01*
X-1527624Y-155556D01*
X-1340953D01*
X-1280072Y-216437D01*
Y-217491D01*
X-1271699Y-237705D01*
X-1256227Y-253177D01*
X-1236012Y-261550D01*
X-1214132D01*
X-1193917Y-253177D01*
X-1178446Y-237705D01*
X-1170072Y-217491D01*
Y-195610D01*
X-1178446Y-175396D01*
X-1193917Y-159924D01*
X-1214132Y-151551D01*
X-1215186D01*
X-1289505Y-77232D01*
X-1304390Y-67286D01*
X-1321948Y-63793D01*
X-1527624D01*
X-1528369Y-63048D01*
X-1548584Y-54675D01*
D02*
G37*
G36*
X-1459307Y-236500D02*
X-1480193D01*
X-1499489Y-244493D01*
X-1514257Y-259261D01*
X-1522250Y-278557D01*
Y-299443D01*
X-1514257Y-318739D01*
X-1499489Y-333508D01*
X-1480193Y-341500D01*
X-1459307D01*
X-1440011Y-333508D01*
X-1425243Y-318739D01*
X-1417250Y-299443D01*
Y-278557D01*
X-1425243Y-259261D01*
X-1440011Y-244493D01*
X-1459307Y-236500D01*
D02*
G37*
G36*
X13657Y-200050D02*
X-5657D01*
X-24312Y-205049D01*
X-41038Y-214705D01*
X-54695Y-228362D01*
X-64351Y-245088D01*
X-69350Y-263743D01*
Y-283057D01*
X-64351Y-301712D01*
X-54695Y-318438D01*
X-41038Y-332095D01*
X-24312Y-341751D01*
X-5657Y-346750D01*
X13657D01*
X32312Y-341751D01*
X49038Y-332095D01*
X62695Y-318438D01*
X72351Y-301712D01*
X77350Y-283057D01*
Y-263743D01*
X72351Y-245088D01*
X62695Y-228362D01*
X49038Y-214705D01*
X32312Y-205049D01*
X13657Y-200050D01*
D02*
G37*
G36*
X-494343Y-301650D02*
X-513657D01*
X-532312Y-306649D01*
X-549038Y-316305D01*
X-562695Y-329962D01*
X-572351Y-346688D01*
X-577350Y-365343D01*
Y-384657D01*
X-572351Y-403312D01*
X-562695Y-420038D01*
X-549038Y-433695D01*
X-532312Y-443351D01*
X-513657Y-448350D01*
X-494343D01*
X-475688Y-443351D01*
X-458962Y-433695D01*
X-445305Y-420038D01*
X-435649Y-403312D01*
X-430650Y-384657D01*
Y-365343D01*
X-435649Y-346688D01*
X-445305Y-329962D01*
X-458962Y-316305D01*
X-475688Y-306649D01*
X-494343Y-301650D01*
D02*
G37*
G36*
X-1364750Y-361396D02*
X-1474750D01*
X-1493024Y-363802D01*
X-1510052Y-370855D01*
X-1524675Y-382076D01*
X-1535895Y-396698D01*
X-1542948Y-413727D01*
X-1545354Y-432000D01*
X-1542948Y-450274D01*
X-1535895Y-467302D01*
X-1524675Y-481925D01*
X-1510052Y-493145D01*
X-1493024Y-500198D01*
X-1474750Y-502604D01*
X-1364750D01*
X-1346476Y-500198D01*
X-1329448Y-493145D01*
X-1314825Y-481925D01*
X-1303605Y-467302D01*
X-1296552Y-450274D01*
X-1294146Y-432000D01*
X-1296552Y-413727D01*
X-1303605Y-396698D01*
X-1314825Y-382076D01*
X-1329448Y-370855D01*
X-1346476Y-363802D01*
X-1364750Y-361396D01*
D02*
G37*
G36*
X-1797750D02*
X-1877750D01*
X-1896023Y-363802D01*
X-1913052Y-370855D01*
X-1927674Y-382076D01*
X-1938895Y-396698D01*
X-1945948Y-413727D01*
X-1948354Y-432000D01*
X-1945948Y-450274D01*
X-1938895Y-467302D01*
X-1927674Y-481925D01*
X-1913052Y-493145D01*
X-1896023Y-500198D01*
X-1877750Y-502604D01*
X-1797750D01*
X-1779477Y-500198D01*
X-1762448Y-493145D01*
X-1747826Y-481925D01*
X-1736605Y-467302D01*
X-1729552Y-450274D01*
X-1727146Y-432000D01*
X-1729552Y-413727D01*
X-1736605Y-396698D01*
X-1747826Y-382076D01*
X-1762448Y-370855D01*
X-1779477Y-363802D01*
X-1797750Y-361396D01*
D02*
G37*
G36*
X13657Y-403250D02*
X-5657D01*
X-24312Y-408249D01*
X-41038Y-417905D01*
X-54695Y-431562D01*
X-64351Y-448288D01*
X-69350Y-466943D01*
Y-486257D01*
X-64351Y-504912D01*
X-54695Y-521638D01*
X-41038Y-535295D01*
X-24312Y-544951D01*
X-5657Y-549950D01*
X13657D01*
X32312Y-544951D01*
X49038Y-535295D01*
X62695Y-521638D01*
X72351Y-504912D01*
X77350Y-486257D01*
Y-466943D01*
X72351Y-448288D01*
X62695Y-431562D01*
X49038Y-417905D01*
X32312Y-408249D01*
X13657Y-403250D01*
D02*
G37*
G36*
X1360940Y5000D02*
X1339060D01*
X1318845Y-3373D01*
X1303374Y-18845D01*
X1295000Y-39060D01*
Y-60940D01*
X1299264Y-71234D01*
X1296741Y-75011D01*
X1294412Y-86716D01*
X1294412Y-86717D01*
Y-562330D01*
X1187330Y-669412D01*
X-186547D01*
X-195000Y-660940D01*
Y-639060D01*
X-203373Y-618845D01*
X-218845Y-603373D01*
X-239060Y-595000D01*
X-260940D01*
X-281155Y-603373D01*
X-296627Y-618845D01*
X-305000Y-639060D01*
Y-660940D01*
X-296627Y-681155D01*
X-281155Y-696626D01*
X-260940Y-705000D01*
X-247305D01*
X-243750Y-709813D01*
X-248131Y-725050D01*
X-256155Y-728373D01*
X-271627Y-743845D01*
X-280000Y-764060D01*
Y-785940D01*
X-271627Y-806155D01*
X-256155Y-821626D01*
X-235940Y-830000D01*
X-214060D01*
X-193845Y-821626D01*
X-193100Y-820882D01*
X392303D01*
X430623Y-859201D01*
X435915Y-871976D01*
X451386Y-887447D01*
X471601Y-895821D01*
X493481D01*
X513696Y-887447D01*
X529168Y-871976D01*
X537541Y-851761D01*
Y-829881D01*
X529168Y-809666D01*
X513696Y-794194D01*
X493481Y-785821D01*
X487015D01*
X444482Y-743288D01*
X444736Y-740175D01*
X448698Y-730588D01*
X1199999D01*
X1200000Y-730588D01*
X1211705Y-728259D01*
X1221629Y-721629D01*
X1346628Y-596629D01*
X1346629Y-596629D01*
X1353259Y-586705D01*
X1355588Y-575000D01*
Y-105000D01*
X1360940D01*
X1381155Y-96626D01*
X1396627Y-81155D01*
X1405000Y-60940D01*
Y-39060D01*
X1396627Y-18845D01*
X1381155Y-3373D01*
X1360940Y5000D01*
D02*
G37*
G36*
X743482Y-940000D02*
X714518D01*
X686542Y-947496D01*
X661459Y-961978D01*
X640978Y-982459D01*
X626497Y-1007542D01*
X619000Y-1035518D01*
Y-1064482D01*
X626497Y-1092458D01*
X640978Y-1117541D01*
X661459Y-1138022D01*
X686542Y-1152503D01*
X714518Y-1160000D01*
X743482D01*
X771458Y-1152503D01*
X796541Y-1138022D01*
X817022Y-1117541D01*
X831504Y-1092458D01*
X839000Y-1064482D01*
Y-1035518D01*
X831504Y-1007542D01*
X817022Y-982459D01*
X796541Y-961978D01*
X771458Y-947496D01*
X743482Y-940000D01*
D02*
G37*
G36*
X235482D02*
X206518D01*
X178542Y-947496D01*
X153459Y-961978D01*
X132978Y-982459D01*
X118497Y-1007542D01*
X111000Y-1035518D01*
Y-1064482D01*
X118497Y-1092458D01*
X132978Y-1117541D01*
X153459Y-1138022D01*
X178542Y-1152503D01*
X206518Y-1160000D01*
X235482D01*
X263458Y-1152503D01*
X288541Y-1138022D01*
X309022Y-1117541D01*
X323504Y-1092458D01*
X331000Y-1064482D01*
Y-1035518D01*
X323504Y-1007542D01*
X309022Y-982459D01*
X288541Y-961978D01*
X263458Y-947496D01*
X235482Y-940000D01*
D02*
G37*
G36*
X-272518D02*
X-301482D01*
X-329458Y-947496D01*
X-354541Y-961978D01*
X-375022Y-982459D01*
X-389503Y-1007542D01*
X-397000Y-1035518D01*
Y-1064482D01*
X-389503Y-1092458D01*
X-375022Y-1117541D01*
X-354541Y-1138022D01*
X-329458Y-1152503D01*
X-301482Y-1160000D01*
X-272518D01*
X-244542Y-1152503D01*
X-219459Y-1138022D01*
X-198978Y-1117541D01*
X-184496Y-1092458D01*
X-177000Y-1064482D01*
Y-1035518D01*
X-184496Y-1007542D01*
X-198978Y-982459D01*
X-219459Y-961978D01*
X-244542Y-947496D01*
X-272518Y-940000D01*
D02*
G37*
%LPD*%
G36*
X900000Y550000D02*
Y450000D01*
X875000Y425000D01*
X825000Y425000D01*
X800000Y450000D01*
Y499999D01*
X774999Y524999D01*
X419732Y525000D01*
X327335Y432603D01*
Y306940D01*
X312555Y292160D01*
X243054D01*
X225000Y310214D01*
Y425626D01*
X180504Y470122D01*
X-54878D01*
X-75000Y450000D01*
Y250000D01*
X-100000Y225000D01*
X-179805D01*
X-200000Y245195D01*
Y475000D01*
X-50000Y625000D01*
X825000D01*
X900000Y550000D01*
D02*
G37*
D24*
X-225000Y-775000D02*
X411308D01*
X477129Y-840821D01*
X482541D01*
X-1556641Y38522D02*
X-1556065Y37946D01*
X-1557218Y204018D02*
X-1556641Y203442D01*
Y38522D02*
Y203442D01*
X-1559524Y-109675D02*
X-1321948D01*
X-1225072Y-206551D01*
X-1248017Y320006D02*
X-1248011D01*
D26*
X1350000Y-61716D02*
Y-50000D01*
X1325000Y-575000D02*
Y-86716D01*
X1200000Y-700000D02*
X1325000Y-575000D01*
Y-86716D02*
X1350000Y-61716D01*
X-200000Y-700000D02*
X1200000D01*
X-250000Y-650000D02*
X-200000Y-700000D01*
D29*
X141553Y368850D02*
X149510Y360893D01*
Y325490D02*
X224429Y250572D01*
X525571D01*
X149510Y325490D02*
Y360893D01*
X525571Y250572D02*
X600000Y325000D01*
D31*
X983000Y-1050000D02*
D03*
X729000D02*
D03*
X475000D02*
D03*
X221000D02*
D03*
X-33000D02*
D03*
X-287000D02*
D03*
D32*
X-1419750Y-432000D02*
D03*
Y432000D02*
D03*
D33*
X-1469750Y289000D02*
D03*
Y-289000D02*
D03*
D34*
X-1837750Y432000D02*
D03*
Y-432000D02*
D03*
D35*
X-1700000Y1075000D02*
D03*
X1425000Y-1075000D02*
D03*
X-1700000D02*
D03*
X1425000Y1075000D02*
D03*
D36*
X-504000Y-375000D02*
D03*
X4000Y-273400D02*
D03*
Y-476600D02*
D03*
D37*
X1600007Y700006D02*
D03*
Y300006D02*
D03*
Y-99994D02*
D03*
Y-499995D02*
D03*
Y-1299995D02*
D03*
X1400007Y700006D02*
D03*
X1500007Y500006D02*
D03*
X1400007Y300006D02*
D03*
X1500007Y100006D02*
D03*
Y-299995D02*
D03*
X1400007Y-499995D02*
D03*
X1500007Y-699995D02*
D03*
X1200006Y700006D02*
D03*
X1300007Y500006D02*
D03*
Y-699995D02*
D03*
X1200006Y-899995D02*
D03*
Y-1299995D02*
D03*
X1000006Y1100006D02*
D03*
X1100006Y900006D02*
D03*
X1000006Y700006D02*
D03*
X1100006Y500006D02*
D03*
X1000006Y300006D02*
D03*
X1100006Y100006D02*
D03*
X1000006Y-899995D02*
D03*
X800006Y1100006D02*
D03*
X900006Y900006D02*
D03*
X800006Y700006D02*
D03*
Y-899995D02*
D03*
Y-1299995D02*
D03*
X600006Y1100006D02*
D03*
X700006Y900006D02*
D03*
X600006Y700006D02*
D03*
Y-899995D02*
D03*
Y-1299995D02*
D03*
X500006Y100006D02*
D03*
X400006Y-499995D02*
D03*
Y-899995D02*
D03*
X300006Y-299995D02*
D03*
X200006Y-499995D02*
D03*
Y-1299995D02*
D03*
X6Y700006D02*
D03*
Y-899995D02*
D03*
X-199994Y-1299995D02*
D03*
X-299994Y100006D02*
D03*
X-399994Y-1299995D02*
D03*
X-499994Y100006D02*
D03*
X-599994Y-499995D02*
D03*
X-499994Y-699995D02*
D03*
X-599994Y-899995D02*
D03*
Y-1299995D02*
D03*
X-799995Y700006D02*
D03*
X-699995Y100006D02*
D03*
Y-299995D02*
D03*
X-799995Y-499995D02*
D03*
X-699995Y-699995D02*
D03*
X-799995Y-899995D02*
D03*
Y-1299995D02*
D03*
X-899995Y900006D02*
D03*
X-999995Y700006D02*
D03*
X-899995Y100006D02*
D03*
Y-299995D02*
D03*
X-999995Y-499995D02*
D03*
X-899995Y-699995D02*
D03*
X-999995Y-899995D02*
D03*
Y-1299995D02*
D03*
X-1099995Y900006D02*
D03*
X-1199995Y700006D02*
D03*
X-1099995Y100006D02*
D03*
Y-299995D02*
D03*
Y-699995D02*
D03*
X-1199995Y-899995D02*
D03*
Y-1299995D02*
D03*
X-1399995Y1100006D02*
D03*
Y700006D02*
D03*
X-1299995Y-699995D02*
D03*
Y-1099995D02*
D03*
X-1399995Y-1299995D02*
D03*
X-1499995Y900006D02*
D03*
X-1799995Y700006D02*
D03*
Y300006D02*
D03*
Y-99994D02*
D03*
X-1699995Y-699995D02*
D03*
X-864805Y243096D02*
D03*
X702239Y463103D02*
D03*
X850000Y475000D02*
D03*
X126924Y175000D02*
D03*
X-733865Y244083D02*
D03*
X-400121Y699937D02*
D03*
X478167Y860000D02*
D03*
X141553Y368850D02*
D03*
X600000Y325000D02*
D03*
X112500Y825000D02*
D03*
X275000Y350000D02*
D03*
X-146579Y277689D02*
D03*
X1350000Y-50000D02*
D03*
X-250000Y-650000D02*
D03*
X-225000Y-775000D02*
D03*
X-125000Y-625000D02*
D03*
X983000Y-1258000D02*
D03*
X475000Y-1267619D02*
D03*
X-33000Y-1267000D02*
D03*
X482541Y-840821D02*
D03*
X1241583Y280372D02*
D03*
X700000Y-540000D02*
D03*
X1240974Y-136424D02*
D03*
X1127036Y-495000D02*
D03*
X857036Y-315001D02*
D03*
X483366Y1004801D02*
D03*
X-1225000Y-575000D02*
D03*
X-1557218Y204018D02*
D03*
X-1559524Y-109675D02*
D03*
X-1556065Y37946D02*
D03*
X-1225072Y-206551D02*
D03*
X-1230000Y-320000D02*
D03*
X-574713Y996682D02*
D03*
X-1248017Y320006D02*
D03*
X-1247499Y560630D02*
D03*
%TF.MD5,1762dd215ef2bb9573779097eb58c9c7*%
M02*
