%TF.GenerationSoftware,Altium Limited,Altium Designer,23.10.1 (27)*%
G04 Layer_Color=65535*
%FSLAX45Y45*%
%MOMM*%
%TF.SameCoordinates,EB818210-93EB-4193-A47C-AA10A5AE6B3E*%
%TF.FilePolarity,Positive*%
%TF.FileFunction,Legend,Top*%
%TF.Part,Single*%
G01*
G75*
%TA.AperFunction,NonConductor*%
%ADD38C,0.25400*%
%ADD39C,0.25000*%
%ADD40C,0.20000*%
%ADD41C,0.30000*%
%ADD42C,0.17500*%
%ADD43C,0.10000*%
D38*
X43747Y839664D02*
G03*
X43747Y839664I-11412J0D01*
G01*
D39*
X702501Y-180000D02*
G03*
X702501Y-180000I-12500J0D01*
G01*
D40*
X-482000Y-1200000D02*
Y-852807D01*
X-302000D01*
X-438278Y-1200000D02*
X1138000D01*
X-438278D02*
Y-900000D01*
X1138000D01*
Y-1200000D02*
Y-900000D01*
X-1700000Y425000D02*
X-1575000D01*
X-1700000Y-425000D02*
X-1575000D01*
X-2050000Y425000D02*
X-1975000D01*
X-2050000Y-425000D02*
Y425000D01*
Y-425000D02*
X-1975000D01*
X-953583Y917861D02*
X-643583D01*
Y1227861D01*
X-953583D02*
X-643583D01*
X-953583Y917861D02*
Y1227861D01*
X12336Y419664D02*
Y549664D01*
Y419664D02*
X62335D01*
X512336D02*
Y549664D01*
X462336Y419664D02*
X512336D01*
Y649664D02*
Y779664D01*
X462336D02*
X512336D01*
X12336Y649664D02*
Y779664D01*
X62335D01*
X625000Y-195000D02*
Y-179700D01*
X609700Y-195000D02*
X625000D01*
X185000D02*
X200300D01*
X185000D02*
Y-179700D01*
Y229700D02*
Y245000D01*
X200300D01*
X625000Y229700D02*
Y245000D01*
X609700D02*
X625000D01*
D41*
X-463385Y769951D02*
Y856592D01*
D42*
X-480000Y-565000D02*
X100000D01*
X-600000Y-445000D02*
X-480000Y-565000D01*
X-600000Y-445000D02*
Y-305000D01*
X-480000Y-185000D01*
X100000D01*
Y-565000D02*
Y-185000D01*
D43*
X-653132Y247417D02*
Y297401D01*
X-628140D01*
X-619810Y289071D01*
Y272409D01*
X-628140Y264078D01*
X-653132D01*
X-636471D02*
X-619810Y247417D01*
X-603148D02*
X-586487D01*
X-594818D01*
Y297401D01*
X-603148Y289071D01*
X-561495D02*
X-553165Y297401D01*
X-536503D01*
X-528173Y289071D01*
Y255748D01*
X-536503Y247417D01*
X-553165D01*
X-561495Y255748D01*
Y289071D01*
X-511512Y247417D02*
X-494850D01*
X-503181D01*
Y297401D01*
X-511512Y289071D01*
X-259220Y327807D02*
X-209237D01*
Y302815D01*
X-217567Y294485D01*
X-234228D01*
X-242559Y302815D01*
Y327807D01*
Y311146D02*
X-259220Y294485D01*
Y277824D02*
Y261163D01*
Y269493D01*
X-209237D01*
X-217567Y277824D01*
Y236170D02*
X-209237Y227840D01*
Y211179D01*
X-217567Y202848D01*
X-250890D01*
X-259220Y211179D01*
Y227840D01*
X-250890Y236170D01*
X-217567D01*
Y186187D02*
X-209237Y177856D01*
Y161195D01*
X-217567Y152864D01*
X-250890D01*
X-259220Y161195D01*
Y177856D01*
X-250890Y186187D01*
X-217567D01*
X1524992Y-233364D02*
X1516661D01*
X1500000Y-250025D01*
X1516661Y-266686D01*
X1524992D01*
X1500000Y-250025D02*
X1475008D01*
Y-316670D02*
Y-283347D01*
X1508331Y-316670D01*
X1516661D01*
X1524992Y-308339D01*
Y-291678D01*
X1516661Y-283347D01*
Y-333331D02*
X1524992Y-341661D01*
Y-358323D01*
X1516661Y-366653D01*
X1483339D01*
X1475008Y-358323D01*
Y-341661D01*
X1483339Y-333331D01*
X1516661D01*
Y-383314D02*
X1524992Y-391645D01*
Y-408306D01*
X1516661Y-416637D01*
X1483339D01*
X1475008Y-408306D01*
Y-391645D01*
X1483339Y-383314D01*
X1516661D01*
X-45361Y679137D02*
X-87014D01*
X-95345Y670806D01*
Y654145D01*
X-87014Y645814D01*
X-45361D01*
X-53692Y629153D02*
X-45361Y620822D01*
Y604161D01*
X-53692Y595831D01*
X-62022D01*
X-70353Y604161D01*
Y612492D01*
Y604161D01*
X-78684Y595831D01*
X-87014D01*
X-95345Y604161D01*
Y620822D01*
X-87014Y629153D01*
X-53692Y579170D02*
X-45361Y570839D01*
Y554178D01*
X-53692Y545847D01*
X-87014D01*
X-95345Y554178D01*
Y570839D01*
X-87014Y579170D01*
X-53692D01*
Y529186D02*
X-45361Y520855D01*
Y504194D01*
X-53692Y495863D01*
X-87014D01*
X-95345Y504194D01*
Y520855D01*
X-87014Y529186D01*
X-53692D01*
X333363Y49992D02*
Y8339D01*
X341694Y8D01*
X358355D01*
X366686Y8339D01*
Y49992D01*
X416669Y8D02*
X383347D01*
X416669Y33331D01*
Y41661D01*
X408339Y49992D01*
X391678D01*
X383347Y41661D01*
X433331D02*
X441661Y49992D01*
X458322D01*
X466653Y41661D01*
Y8339D01*
X458322Y8D01*
X441661D01*
X433331Y8339D01*
Y41661D01*
X483314D02*
X491645Y49992D01*
X508306D01*
X516637Y41661D01*
Y8339D01*
X508306Y8D01*
X491645D01*
X483314Y8339D01*
Y41661D01*
X-423671Y1113723D02*
X-465324D01*
X-473655Y1105392D01*
Y1088731D01*
X-465324Y1080400D01*
X-423671D01*
X-473655Y1063739D02*
Y1047078D01*
Y1055409D01*
X-423671D01*
X-432002Y1063739D01*
Y1022086D02*
X-423671Y1013755D01*
Y997094D01*
X-432002Y988764D01*
X-465324D01*
X-473655Y997094D01*
Y1013755D01*
X-465324Y1022086D01*
X-432002D01*
Y972102D02*
X-423671Y963772D01*
Y947111D01*
X-432002Y938780D01*
X-465324D01*
X-473655Y947111D01*
Y963772D01*
X-465324Y972102D01*
X-432002D01*
X800008Y-533364D02*
X849992D01*
Y-558355D01*
X841662Y-566686D01*
X825000D01*
X816669Y-558355D01*
Y-533364D01*
Y-550025D02*
X800008Y-566686D01*
Y-616670D02*
Y-583347D01*
X833331Y-616670D01*
X841662D01*
X849992Y-608339D01*
Y-591678D01*
X841662Y-583347D01*
Y-633331D02*
X849992Y-641662D01*
Y-658323D01*
X841662Y-666653D01*
X808339D01*
X800008Y-658323D01*
Y-641662D01*
X808339Y-633331D01*
X841662D01*
X800008Y-716637D02*
Y-683315D01*
X833331Y-716637D01*
X841662D01*
X849992Y-708306D01*
Y-691645D01*
X841662Y-683315D01*
X560052Y-643350D02*
Y-593366D01*
X585044D01*
X593375Y-601697D01*
Y-618358D01*
X585044Y-626689D01*
X560052D01*
X576713D02*
X593375Y-643350D01*
X643358D02*
X610036D01*
X643358Y-610027D01*
Y-601697D01*
X635028Y-593366D01*
X618367D01*
X610036Y-601697D01*
X660020D02*
X668350Y-593366D01*
X685011D01*
X693342Y-601697D01*
Y-635019D01*
X685011Y-643350D01*
X668350D01*
X660020Y-635019D01*
Y-601697D01*
X710003Y-643350D02*
X726664D01*
X718334D01*
Y-593366D01*
X710003Y-601697D01*
X-41637Y-774992D02*
Y-725008D01*
X-16645D01*
X-8314Y-733339D01*
Y-750000D01*
X-16645Y-758331D01*
X-41637D01*
X-24976D02*
X-8314Y-774992D01*
X41669D02*
X8347D01*
X41669Y-741669D01*
Y-733339D01*
X33339Y-725008D01*
X16678D01*
X8347Y-733339D01*
X58331D02*
X66661Y-725008D01*
X83322D01*
X91653Y-733339D01*
Y-766661D01*
X83322Y-774992D01*
X66661D01*
X58331Y-766661D01*
Y-733339D01*
X108314D02*
X116645Y-725008D01*
X133306D01*
X141637Y-733339D01*
Y-766661D01*
X133306Y-774992D01*
X116645D01*
X108314Y-766661D01*
Y-733339D01*
X-1492372Y689981D02*
Y739964D01*
X-1467381D01*
X-1459050Y731634D01*
Y714972D01*
X-1467381Y706642D01*
X-1492372D01*
X-1475711D02*
X-1459050Y689981D01*
X-1442389D02*
X-1425728D01*
X-1434058D01*
Y739964D01*
X-1442389Y731634D01*
X-1400736D02*
X-1392405Y739964D01*
X-1375744D01*
X-1367413Y731634D01*
Y698311D01*
X-1375744Y689981D01*
X-1392405D01*
X-1400736Y698311D01*
Y731634D01*
X-1350752D02*
X-1342421Y739964D01*
X-1325760D01*
X-1317429Y731634D01*
Y723303D01*
X-1325760Y714972D01*
X-1334091D01*
X-1325760D01*
X-1317429Y706642D01*
Y698311D01*
X-1325760Y689981D01*
X-1342421D01*
X-1350752Y698311D01*
X-1487471Y-749992D02*
Y-700008D01*
X-1462480D01*
X-1454149Y-708339D01*
Y-725000D01*
X-1462480Y-733331D01*
X-1487471D01*
X-1470810D02*
X-1454149Y-749992D01*
X-1437488D02*
X-1420827D01*
X-1429157D01*
Y-700008D01*
X-1437488Y-708339D01*
X-1395835D02*
X-1387504Y-700008D01*
X-1370843D01*
X-1362512Y-708339D01*
Y-741661D01*
X-1370843Y-749992D01*
X-1387504D01*
X-1395835Y-741661D01*
Y-708339D01*
X-1312528Y-749992D02*
X-1345851D01*
X-1312528Y-716669D01*
Y-708339D01*
X-1320859Y-700008D01*
X-1337520D01*
X-1345851Y-708339D01*
X-1022857Y1146231D02*
X-1072841D01*
Y1112909D01*
Y1096247D02*
Y1079586D01*
Y1087917D01*
X-1022857D01*
X-1031188Y1096247D01*
Y1054594D02*
X-1022857Y1046264D01*
Y1029602D01*
X-1031188Y1021272D01*
X-1064510D01*
X-1072841Y1029602D01*
Y1046264D01*
X-1064510Y1054594D01*
X-1031188D01*
Y1004611D02*
X-1022857Y996280D01*
Y979619D01*
X-1031188Y971288D01*
X-1064510D01*
X-1072841Y979619D01*
Y996280D01*
X-1064510Y1004611D01*
X-1031188D01*
X-733314Y-1075008D02*
X-749975D01*
X-741645D01*
Y-1116661D01*
X-749975Y-1124992D01*
X-758306D01*
X-766637Y-1116661D01*
X-716653Y-1083338D02*
X-708322Y-1075008D01*
X-691661D01*
X-683330Y-1083338D01*
Y-1091669D01*
X-691661Y-1100000D01*
X-699992D01*
X-691661D01*
X-683330Y-1108331D01*
Y-1116661D01*
X-691661Y-1124992D01*
X-708322D01*
X-716653Y-1116661D01*
X-666669Y-1083338D02*
X-658339Y-1075008D01*
X-641677D01*
X-633347Y-1083338D01*
Y-1116661D01*
X-641677Y-1124992D01*
X-658339D01*
X-666669Y-1116661D01*
Y-1083338D01*
X-616686D02*
X-608355Y-1075008D01*
X-591694D01*
X-583363Y-1083338D01*
Y-1116661D01*
X-591694Y-1124992D01*
X-608355D01*
X-616686Y-1116661D01*
Y-1083338D01*
X-565378Y-66496D02*
X-582039D01*
X-573708D01*
Y-108149D01*
X-582039Y-116480D01*
X-590369D01*
X-598700Y-108149D01*
X-515394Y-116480D02*
X-548716D01*
X-515394Y-83158D01*
Y-74827D01*
X-523725Y-66496D01*
X-540386D01*
X-548716Y-74827D01*
X-498733D02*
X-490402Y-66496D01*
X-473741D01*
X-465410Y-74827D01*
Y-108149D01*
X-473741Y-116480D01*
X-490402D01*
X-498733Y-108149D01*
Y-74827D01*
X-448749D02*
X-440418Y-66496D01*
X-423757D01*
X-415427Y-74827D01*
Y-108149D01*
X-423757Y-116480D01*
X-440418D01*
X-448749Y-108149D01*
Y-74827D01*
X-1854149Y624992D02*
X-1870810D01*
X-1862480D01*
Y583339D01*
X-1870810Y575008D01*
X-1879141D01*
X-1887471Y583339D01*
X-1837488Y575008D02*
X-1820827D01*
X-1829157D01*
Y624992D01*
X-1837488Y616661D01*
X-1795835D02*
X-1787504Y624992D01*
X-1770843D01*
X-1762512Y616661D01*
Y583339D01*
X-1770843Y575008D01*
X-1787504D01*
X-1795835Y583339D01*
Y616661D01*
X-1745851D02*
X-1737520Y624992D01*
X-1720859D01*
X-1712528Y616661D01*
Y583339D01*
X-1720859Y575008D01*
X-1737520D01*
X-1745851Y583339D01*
Y616661D01*
X1116177Y233726D02*
Y267048D01*
X1091185D01*
Y250387D01*
Y267048D01*
X1066193D01*
X1116177Y217065D02*
X1066193D01*
Y192073D01*
X1074524Y183742D01*
X1082854D01*
X1091185Y192073D01*
Y217065D01*
Y192073D01*
X1099516Y183742D01*
X1107846D01*
X1116177Y192073D01*
Y217065D01*
X1066193Y133759D02*
Y167081D01*
X1099516Y133759D01*
X1107846D01*
X1116177Y142089D01*
Y158751D01*
X1107846Y167081D01*
Y117098D02*
X1116177Y108767D01*
Y92106D01*
X1107846Y83775D01*
X1074524D01*
X1066193Y92106D01*
Y108767D01*
X1074524Y117098D01*
X1107846D01*
Y67114D02*
X1116177Y58783D01*
Y42122D01*
X1107846Y33791D01*
X1074524D01*
X1066193Y42122D01*
Y58783D01*
X1074524Y67114D01*
X1107846D01*
X-1002651Y95455D02*
Y128777D01*
X-1027643D01*
Y112116D01*
Y128777D01*
X-1052635D01*
X-1002651Y78794D02*
X-1052635D01*
Y53802D01*
X-1044304Y45471D01*
X-1035974D01*
X-1027643Y53802D01*
Y78794D01*
Y53802D01*
X-1019312Y45471D01*
X-1010981D01*
X-1002651Y53802D01*
Y78794D01*
X-1052635Y28810D02*
Y12149D01*
Y20479D01*
X-1002651D01*
X-1010981Y28810D01*
Y-12843D02*
X-1002651Y-21174D01*
Y-37835D01*
X-1010981Y-46166D01*
X-1044304D01*
X-1052635Y-37835D01*
Y-21174D01*
X-1044304Y-12843D01*
X-1010981D01*
Y-62827D02*
X-1002651Y-71158D01*
Y-87819D01*
X-1010981Y-96149D01*
X-1044304D01*
X-1052635Y-87819D01*
Y-71158D01*
X-1044304Y-62827D01*
X-1010981D01*
X-16617Y1071462D02*
X-24948Y1079792D01*
X-41609D01*
X-49940Y1071462D01*
Y1038139D01*
X-41609Y1029809D01*
X-24948D01*
X-16617Y1038139D01*
X44Y1071462D02*
X8374Y1079792D01*
X25036D01*
X33366Y1071462D01*
Y1063131D01*
X25036Y1054801D01*
X16705D01*
X25036D01*
X33366Y1046470D01*
Y1038139D01*
X25036Y1029809D01*
X8374D01*
X44Y1038139D01*
X50027Y1071462D02*
X58358Y1079792D01*
X75019D01*
X83350Y1071462D01*
Y1038139D01*
X75019Y1029809D01*
X58358D01*
X50027Y1038139D01*
Y1071462D01*
X100011Y1029809D02*
X116672D01*
X108342D01*
Y1079792D01*
X100011Y1071462D01*
X-24948Y946462D02*
X-33279Y954792D01*
X-49940D01*
X-58271Y946462D01*
Y913139D01*
X-49940Y904809D01*
X-33279D01*
X-24948Y913139D01*
X-8287Y946462D02*
X44Y954792D01*
X16705D01*
X25036Y946462D01*
Y938131D01*
X16705Y929801D01*
X8374D01*
X16705D01*
X25036Y921470D01*
Y913139D01*
X16705Y904809D01*
X44D01*
X-8287Y913139D01*
X41697Y946462D02*
X50027Y954792D01*
X66688D01*
X75019Y946462D01*
Y913139D01*
X66688Y904809D01*
X50027D01*
X41697Y913139D01*
Y946462D01*
X91680D02*
X100011Y954792D01*
X116672D01*
X125003Y946462D01*
Y913139D01*
X116672Y904809D01*
X100011D01*
X91680Y913139D01*
Y946462D01*
X991661Y208314D02*
X999992Y216645D01*
Y233306D01*
X991661Y241637D01*
X958339D01*
X950008Y233306D01*
Y216645D01*
X958339Y208314D01*
X950008Y158330D02*
Y191653D01*
X983331Y158330D01*
X991661D01*
X999992Y166661D01*
Y183322D01*
X991661Y191653D01*
Y141669D02*
X999992Y133339D01*
Y116677D01*
X991661Y108347D01*
X958339D01*
X950008Y116677D01*
Y133339D01*
X958339Y141669D01*
X991661D01*
X999992Y58363D02*
X991661Y75024D01*
X975000Y91686D01*
X958339D01*
X950008Y83355D01*
Y66694D01*
X958339Y58363D01*
X966669D01*
X975000Y66694D01*
Y91686D01*
X978411Y378699D02*
X970080Y387030D01*
X953419D01*
X945088Y378699D01*
Y345377D01*
X953419Y337046D01*
X970080D01*
X978411Y345377D01*
X1028394Y337046D02*
X995072D01*
X1028394Y370369D01*
Y378699D01*
X1020064Y387030D01*
X1003403D01*
X995072Y378699D01*
X1045056D02*
X1053386Y387030D01*
X1070047D01*
X1078378Y378699D01*
Y345377D01*
X1070047Y337046D01*
X1053386D01*
X1045056Y345377D01*
Y378699D01*
X1128362Y387030D02*
X1095039D01*
Y362038D01*
X1111700Y370369D01*
X1120031D01*
X1128362Y362038D01*
Y345377D01*
X1120031Y337046D01*
X1103370D01*
X1095039Y345377D01*
X1416662Y-191686D02*
X1424992Y-183355D01*
Y-166694D01*
X1416662Y-158364D01*
X1383339D01*
X1375008Y-166694D01*
Y-183355D01*
X1383339Y-191686D01*
X1375008Y-241670D02*
Y-208347D01*
X1408331Y-241670D01*
X1416662D01*
X1424992Y-233339D01*
Y-216678D01*
X1416662Y-208347D01*
Y-258331D02*
X1424992Y-266662D01*
Y-283323D01*
X1416662Y-291653D01*
X1383339D01*
X1375008Y-283323D01*
Y-266662D01*
X1383339Y-258331D01*
X1416662D01*
X1375008Y-333306D02*
X1424992D01*
X1400000Y-308315D01*
Y-341637D01*
X1416662Y-416686D02*
X1424992Y-408356D01*
Y-391694D01*
X1416662Y-383364D01*
X1383339D01*
X1375008Y-391694D01*
Y-408356D01*
X1383339Y-416686D01*
X1375008Y-466670D02*
Y-433347D01*
X1408331Y-466670D01*
X1416662D01*
X1424992Y-458339D01*
Y-441678D01*
X1416662Y-433347D01*
Y-483331D02*
X1424992Y-491662D01*
Y-508323D01*
X1416662Y-516654D01*
X1383339D01*
X1375008Y-508323D01*
Y-491662D01*
X1383339Y-483331D01*
X1416662D01*
Y-533315D02*
X1424992Y-541645D01*
Y-558306D01*
X1416662Y-566637D01*
X1408331D01*
X1400000Y-558306D01*
Y-549976D01*
Y-558306D01*
X1391670Y-566637D01*
X1383339D01*
X1375008Y-558306D01*
Y-541645D01*
X1383339Y-533315D01*
X-95656Y70163D02*
X-103987Y61832D01*
Y45171D01*
X-95656Y36840D01*
X-62334D01*
X-54003Y45171D01*
Y61832D01*
X-62334Y70163D01*
X-54003Y120146D02*
Y86824D01*
X-87326Y120146D01*
X-95656D01*
X-103987Y111816D01*
Y95154D01*
X-95656Y86824D01*
Y136807D02*
X-103987Y145138D01*
Y161799D01*
X-95656Y170130D01*
X-62334D01*
X-54003Y161799D01*
Y145138D01*
X-62334Y136807D01*
X-95656D01*
X-54003Y186791D02*
Y203452D01*
Y195122D01*
X-103987D01*
X-95656Y186791D01*
X1366661Y183314D02*
X1374992Y191645D01*
Y208306D01*
X1366661Y216637D01*
X1333339D01*
X1325008Y208306D01*
Y191645D01*
X1333339Y183314D01*
X1325008Y133330D02*
Y166653D01*
X1358331Y133330D01*
X1366661D01*
X1374992Y141661D01*
Y158322D01*
X1366661Y166653D01*
Y116669D02*
X1374992Y108339D01*
Y91677D01*
X1366661Y83347D01*
X1333339D01*
X1325008Y91677D01*
Y108339D01*
X1333339Y116669D01*
X1366661D01*
Y66686D02*
X1374992Y58355D01*
Y41694D01*
X1366661Y33363D01*
X1333339D01*
X1325008Y41694D01*
Y58355D01*
X1333339Y66686D01*
X1366661D01*
X-358347Y297698D02*
X-350017Y306029D01*
Y322690D01*
X-358347Y331021D01*
X-391670D01*
X-400000Y322690D01*
Y306029D01*
X-391670Y297698D01*
X-400000Y281037D02*
Y264376D01*
Y272707D01*
X-350017D01*
X-358347Y281037D01*
Y239384D02*
X-350017Y231053D01*
Y214392D01*
X-358347Y206062D01*
X-391670D01*
X-400000Y214392D01*
Y231053D01*
X-391670Y239384D01*
X-358347D01*
X-400000Y164409D02*
X-350017D01*
X-375009Y189400D01*
Y156078D01*
X-878917Y689517D02*
X-887248Y681186D01*
Y664525D01*
X-878917Y656194D01*
X-845595D01*
X-837264Y664525D01*
Y681186D01*
X-845595Y689517D01*
X-837264Y706178D02*
Y722839D01*
Y714509D01*
X-887248D01*
X-878917Y706178D01*
Y747831D02*
X-887248Y756162D01*
Y772823D01*
X-878917Y781154D01*
X-845595D01*
X-837264Y772823D01*
Y756162D01*
X-845595Y747831D01*
X-878917D01*
Y797815D02*
X-887248Y806145D01*
Y822807D01*
X-878917Y831137D01*
X-870587D01*
X-862256Y822807D01*
Y814476D01*
Y822807D01*
X-853925Y831137D01*
X-845595D01*
X-837264Y822807D01*
Y806145D01*
X-845595Y797815D01*
X-283339Y1129149D02*
X-275008Y1137480D01*
Y1154141D01*
X-283339Y1162471D01*
X-316661D01*
X-324992Y1154141D01*
Y1137480D01*
X-316661Y1129149D01*
X-324992Y1112488D02*
Y1095827D01*
Y1104157D01*
X-275008D01*
X-283339Y1112488D01*
Y1070835D02*
X-275008Y1062504D01*
Y1045843D01*
X-283339Y1037512D01*
X-316661D01*
X-324992Y1045843D01*
Y1062504D01*
X-316661Y1070835D01*
X-283339D01*
X-324992Y987528D02*
Y1020851D01*
X-291669Y987528D01*
X-283339D01*
X-275008Y995859D01*
Y1012520D01*
X-283339Y1020851D01*
X-1132153Y673594D02*
X-1140484Y681924D01*
X-1157145D01*
X-1165475Y673594D01*
Y640271D01*
X-1157145Y631941D01*
X-1140484D01*
X-1132153Y640271D01*
X-1115492Y631941D02*
X-1098831D01*
X-1107161D01*
Y681924D01*
X-1115492Y673594D01*
X-1073839D02*
X-1065508Y681924D01*
X-1048847D01*
X-1040516Y673594D01*
Y640271D01*
X-1048847Y631941D01*
X-1065508D01*
X-1073839Y640271D01*
Y673594D01*
X-1023855Y631941D02*
X-1007194D01*
X-1015524D01*
Y681924D01*
X-1023855Y673594D01*
X-1158910Y119408D02*
X-1150580Y127738D01*
Y144400D01*
X-1158910Y152730D01*
X-1192233D01*
X-1200563Y144400D01*
Y127738D01*
X-1192233Y119408D01*
X-1200563Y102747D02*
Y86085D01*
Y94416D01*
X-1150580D01*
X-1158910Y102747D01*
Y61093D02*
X-1150580Y52763D01*
Y36102D01*
X-1158910Y27771D01*
X-1192233D01*
X-1200563Y36102D01*
Y52763D01*
X-1192233Y61093D01*
X-1158910D01*
Y11110D02*
X-1150580Y2779D01*
Y-13882D01*
X-1158910Y-22213D01*
X-1192233D01*
X-1200563Y-13882D01*
Y2779D01*
X-1192233Y11110D01*
X-1158910D01*
%TF.MD5,298d20827d66a725744ec86ab2abb637*%
M02*
