%TF.GenerationSoftware,Altium Limited,Altium Designer,23.10.1 (27)*%
G04 Layer_Color=255*
%FSLAX45Y45*%
%MOMM*%
%TF.SameCoordinates,EB818210-93EB-4193-A47C-AA10A5AE6B3E*%
%TF.FilePolarity,Positive*%
%TF.FileFunction,Pads,Top*%
%TF.Part,Single*%
G01*
G75*
%TA.AperFunction,SMDPad,CuDef*%
G04:AMPARAMS|DCode=10|XSize=0.8mm|YSize=1mm|CornerRadius=0.1mm|HoleSize=0mm|Usage=FLASHONLY|Rotation=180.000|XOffset=0mm|YOffset=0mm|HoleType=Round|Shape=RoundedRectangle|*
%AMROUNDEDRECTD10*
21,1,0.80000,0.80000,0,0,180.0*
21,1,0.60000,1.00000,0,0,180.0*
1,1,0.20000,-0.30000,0.40000*
1,1,0.20000,0.30000,0.40000*
1,1,0.20000,0.30000,-0.40000*
1,1,0.20000,-0.30000,-0.40000*
%
%ADD10ROUNDEDRECTD10*%
%TA.AperFunction,TestPad*%
G04:AMPARAMS|DCode=11|XSize=0.3mm|YSize=1.15mm|CornerRadius=0.0375mm|HoleSize=0mm|Usage=FLASHONLY|Rotation=270.000|XOffset=0mm|YOffset=0mm|HoleType=Round|Shape=RoundedRectangle|*
%AMROUNDEDRECTD11*
21,1,0.30000,1.07500,0,0,270.0*
21,1,0.22500,1.15000,0,0,270.0*
1,1,0.07500,-0.53750,-0.11250*
1,1,0.07500,-0.53750,0.11250*
1,1,0.07500,0.53750,0.11250*
1,1,0.07500,0.53750,-0.11250*
%
%ADD11ROUNDEDRECTD11*%
G04:AMPARAMS|DCode=12|XSize=0.6mm|YSize=1.15mm|CornerRadius=0.075mm|HoleSize=0mm|Usage=FLASHONLY|Rotation=270.000|XOffset=0mm|YOffset=0mm|HoleType=Round|Shape=RoundedRectangle|*
%AMROUNDEDRECTD12*
21,1,0.60000,1.00000,0,0,270.0*
21,1,0.45000,1.15000,0,0,270.0*
1,1,0.15000,-0.50000,-0.22500*
1,1,0.15000,-0.50000,0.22500*
1,1,0.15000,0.50000,0.22500*
1,1,0.15000,0.50000,-0.22500*
%
%ADD12ROUNDEDRECTD12*%
%TA.AperFunction,SMDPad,CuDef*%
G04:AMPARAMS|DCode=13|XSize=0.8mm|YSize=0.9mm|CornerRadius=0.08mm|HoleSize=0mm|Usage=FLASHONLY|Rotation=180.000|XOffset=0mm|YOffset=0mm|HoleType=Round|Shape=RoundedRectangle|*
%AMROUNDEDRECTD13*
21,1,0.80000,0.74000,0,0,180.0*
21,1,0.64000,0.90000,0,0,180.0*
1,1,0.16000,-0.32000,0.37000*
1,1,0.16000,0.32000,0.37000*
1,1,0.16000,0.32000,-0.37000*
1,1,0.16000,-0.32000,-0.37000*
%
%ADD13ROUNDEDRECTD13*%
%ADD14R,2.00000X0.70000*%
%ADD15R,0.75000X0.30000*%
%ADD16R,0.30000X0.75000*%
G04:AMPARAMS|DCode=17|XSize=0.8mm|YSize=1mm|CornerRadius=0.1mm|HoleSize=0mm|Usage=FLASHONLY|Rotation=270.000|XOffset=0mm|YOffset=0mm|HoleType=Round|Shape=RoundedRectangle|*
%AMROUNDEDRECTD17*
21,1,0.80000,0.80000,0,0,270.0*
21,1,0.60000,1.00000,0,0,270.0*
1,1,0.20000,-0.40000,-0.30000*
1,1,0.20000,-0.40000,0.30000*
1,1,0.20000,0.40000,0.30000*
1,1,0.20000,0.40000,-0.30000*
%
%ADD17ROUNDEDRECTD17*%
%ADD18R,0.30000X0.25000*%
%ADD19R,0.25000X0.30000*%
%ADD20R,0.55000X0.30000*%
%ADD21R,0.30000X0.55000*%
G04:AMPARAMS|DCode=22|XSize=0.6mm|YSize=1.2mm|CornerRadius=0.075mm|HoleSize=0mm|Usage=FLASHONLY|Rotation=180.000|XOffset=0mm|YOffset=0mm|HoleType=Round|Shape=RoundedRectangle|*
%AMROUNDEDRECTD22*
21,1,0.60000,1.05000,0,0,180.0*
21,1,0.45000,1.20000,0,0,180.0*
1,1,0.15000,-0.22500,0.52500*
1,1,0.15000,0.22500,0.52500*
1,1,0.15000,0.22500,-0.52500*
1,1,0.15000,-0.22500,-0.52500*
%
%ADD22ROUNDEDRECTD22*%
%TA.AperFunction,BGAPad,CuDef*%
%ADD23C,0.86300*%
%TA.AperFunction,TestPad*%
%ADD31C,1.80000*%
%ADD32O,2.10000X1.00000*%
%ADD33C,0.65000*%
%ADD34O,1.80000X1.00000*%
%TA.AperFunction,ViaPad*%
%ADD35C,4.00000*%
%TA.AperFunction,ComponentPad*%
%ADD36C,1.06700*%
D10*
X364368Y999190D02*
D03*
X214368D02*
D03*
X365000Y860000D02*
D03*
X215000D02*
D03*
X585000Y-750000D02*
D03*
X735000D02*
D03*
X380082Y-747811D02*
D03*
X230082D02*
D03*
X700000Y350000D02*
D03*
X850000D02*
D03*
X-585126Y389804D02*
D03*
X-735126D02*
D03*
X-1010669Y539318D02*
D03*
X-1160669D02*
D03*
X-1350000Y-575000D02*
D03*
X-1500000D02*
D03*
X-1354901Y564972D02*
D03*
X-1504901D02*
D03*
D11*
X-1362250Y25000D02*
D03*
Y75000D02*
D03*
Y-75000D02*
D03*
Y-25000D02*
D03*
Y125000D02*
D03*
Y175000D02*
D03*
Y-125000D02*
D03*
Y-175000D02*
D03*
D12*
Y240000D02*
D03*
Y320000D02*
D03*
Y-240000D02*
D03*
Y-320000D02*
D03*
D13*
X1237036Y-385001D02*
D03*
Y-245001D02*
D03*
X1127036D02*
D03*
Y-385001D02*
D03*
D14*
X-798583Y1145361D02*
D03*
Y1000361D02*
D03*
D15*
X57335Y599664D02*
D03*
X467336D02*
D03*
D16*
X112335Y469664D02*
D03*
X162335D02*
D03*
X212335D02*
D03*
X262336D02*
D03*
X312335D02*
D03*
X362335D02*
D03*
X412335D02*
D03*
Y729664D02*
D03*
X362335D02*
D03*
X312335D02*
D03*
X262336D02*
D03*
X212335D02*
D03*
X162335D02*
D03*
X112335D02*
D03*
D17*
X1241583Y165000D02*
D03*
Y15000D02*
D03*
X700000Y-440000D02*
D03*
Y-290000D02*
D03*
X982036Y-240000D02*
D03*
Y-90000D02*
D03*
Y-390001D02*
D03*
Y-540001D02*
D03*
X850521Y78098D02*
D03*
Y228098D02*
D03*
X711125Y228031D02*
D03*
Y78031D02*
D03*
X32332Y189170D02*
D03*
Y39170D02*
D03*
X-862256Y393666D02*
D03*
Y543666D02*
D03*
X-244663Y542490D02*
D03*
Y392490D02*
D03*
X-375009Y543550D02*
D03*
Y393550D02*
D03*
X-445782Y1149988D02*
D03*
Y999988D02*
D03*
X-1008918Y243951D02*
D03*
Y393951D02*
D03*
X-1155683Y242334D02*
D03*
Y392333D02*
D03*
D18*
X210000Y-125000D02*
D03*
X600000Y175000D02*
D03*
X210000D02*
D03*
X600000Y-125000D02*
D03*
D19*
X255000Y220000D02*
D03*
X555000Y-170000D02*
D03*
X255000D02*
D03*
X555000Y220000D02*
D03*
D20*
X592500Y-75000D02*
D03*
Y-25000D02*
D03*
Y25000D02*
D03*
Y75000D02*
D03*
Y125000D02*
D03*
X217500D02*
D03*
Y75000D02*
D03*
Y25000D02*
D03*
Y-25000D02*
D03*
Y-75000D02*
D03*
D21*
X505000Y212500D02*
D03*
X455000D02*
D03*
X405000D02*
D03*
X355000D02*
D03*
X305000D02*
D03*
Y-162500D02*
D03*
X355000D02*
D03*
X405000D02*
D03*
X455000D02*
D03*
X505000D02*
D03*
D22*
X-543381Y573816D02*
D03*
X-638381D02*
D03*
X-733381D02*
D03*
Y813817D02*
D03*
X-638381D02*
D03*
X-543381D02*
D03*
D23*
X-377000Y-438500D02*
D03*
X-250000D02*
D03*
X-123000D02*
D03*
X-377000Y-311500D02*
D03*
X-250000D02*
D03*
X-123000D02*
D03*
D31*
X983000Y-1050000D02*
D03*
X729000D02*
D03*
X475000D02*
D03*
X221000D02*
D03*
X-33000D02*
D03*
X-287000D02*
D03*
D32*
X-1419750Y-432000D02*
D03*
Y432000D02*
D03*
D33*
X-1469750Y289000D02*
D03*
Y-289000D02*
D03*
D34*
X-1837750Y432000D02*
D03*
Y-432000D02*
D03*
D35*
X-1700000Y1075000D02*
D03*
X1425000Y-1075000D02*
D03*
X-1700000D02*
D03*
X1425000Y1075000D02*
D03*
D36*
X-504000Y-375000D02*
D03*
X4000Y-273400D02*
D03*
Y-476600D02*
D03*
%TF.MD5,6d0bd4703f3935ea08550676ed6c36fe*%
M02*
